<mxfile host="app.diagrams.net" agent="Mozilla/5.0 (Windows NT 10.0; Win64; x64) AppleWebKit/537.36 (KHTML, like Gecko) Chrome/134.0.0.0 Safari/537.36" version="26.1.0">
  <diagram name="Page-1" id="zKo1uAAflRq5BXy2DkUq">
    <mxGraphModel dx="1111" dy="1013" grid="1" gridSize="10" guides="1" tooltips="1" connect="1" arrows="1" fold="1" page="1" pageScale="1" pageWidth="850" pageHeight="1100" math="0" shadow="0">
      <root>
        <mxCell id="0" />
        <mxCell id="1" parent="0" />
        <mxCell id="SERmCTiBr_25booTLpWR-19" value="" style="rounded=1;whiteSpace=wrap;html=1;fillColor=none;dashed=1;dashPattern=8 8;strokeWidth=3;strokeColor=#0066CC;perimeterSpacing=0;" vertex="1" parent="1">
          <mxGeometry x="420" y="1060" width="550" height="220" as="geometry" />
        </mxCell>
        <mxCell id="SERmCTiBr_25booTLpWR-10" value="" style="rounded=1;whiteSpace=wrap;html=1;fillColor=none;dashed=1;dashPattern=8 8;strokeWidth=3;strokeColor=#0066CC;perimeterSpacing=0;" vertex="1" parent="1">
          <mxGeometry x="140" y="1060" width="140" height="240" as="geometry" />
        </mxCell>
        <mxCell id="SERmCTiBr_25booTLpWR-25" style="edgeStyle=orthogonalEdgeStyle;rounded=0;orthogonalLoop=1;jettySize=auto;html=1;targetPerimeterSpacing=5;sourcePerimeterSpacing=5;strokeWidth=4;strokeColor=#99CCFF;entryX=0;entryY=0.75;entryDx=0;entryDy=0;" edge="1" parent="1" source="SERmCTiBr_25booTLpWR-20" target="SERmCTiBr_25booTLpWR-11">
          <mxGeometry relative="1" as="geometry">
            <mxPoint x="190" y="1283" as="sourcePoint" />
            <mxPoint x="448" y="1340" as="targetPoint" />
          </mxGeometry>
        </mxCell>
        <mxCell id="SERmCTiBr_25booTLpWR-5" value="Airflow" style="shape=image;verticalLabelPosition=bottom;labelBackgroundColor=default;verticalAlign=top;aspect=fixed;imageAspect=0;image=https://www.datamation.com/wp-content/uploads/2018/09/apache_airflow-icon.png;" vertex="1" parent="1">
          <mxGeometry x="577.02" y="1238.16" width="78.5" height="78.5" as="geometry" />
        </mxCell>
        <mxCell id="SERmCTiBr_25booTLpWR-8" value="" style="shape=image;verticalLabelPosition=bottom;labelBackgroundColor=default;verticalAlign=top;aspect=fixed;imageAspect=0;image=data:image/png,iVBORw0KGgoAAAANSUhEUgAAASYAAAEaCAYAAAC8fPoMAAAAAXNSR0IArs4c6QAAAARnQU1BAACxjwv8YQUAAAAJcEhZcwAADsMAAA7DAcdvqGQAADCrSURBVHhe7Z0JmFxVmfejgyKK2yggjgsjLoiyKDpsMq1A0nXPOdWd+NE6snyRJF33nHOrsxAdRR17Zj7FXWbUEVEWcV9GEGTRYRwFZURkk0WWsAgKhFUCYQlJ/ud73nOrOp2TTrrq1q2qW1Xv73n+D3lI5/Zdzj33Pe95lzlzGIZhGIZhGIZhGIZhGIZhGIZhGIZhGIZhGIZhGIZhGIZhGIZhGIZhGIZhGIZhGIZhGIZhGIZhGIZhGIZhGIZhGIZhGIZhGIZhGIZhGIZhGIZhGIZhGIZhGIZhGIZhGIZhGIbJFWfkC52Rr3Lx6G5TMvJVSEZeGv4s0ye4sbG/woojdnDLRl9QGwCbRP/PDu3oJoe2C/8dw7QDV1HPxni0F4zS0OJkGPFzJPI6aHELtFi1SfIWGHkjjPwdrPwRtJhEVR6CidLzwmMyPQL03J1RGXkLjLAw4lQYeRG0eABGPriZtHwAWl4FLb8JI96H8dIQYvk34fEYphVcpfIM6JE3waoViOUlMOIRWLHBJWXnlo44t3TUuYmRmbWs9ndGOlj5GLS41Rn5SejyATjigB3C38UUEGfkfjDqfc7KX8KIdf6BVsuNqf7w6Qtl1L+6WL49PD7DNIObnHw6YrkASflUGPHY1HikCcmqVEY2JvpZ+ne1sQotn4AR33Lj8vDw9zIFAYk3jb8IK293y+enk0wzD336w6d/u3y+g1EPQEenw5SGwt/HMLPhEvl2GPltWPWUH5NJhvG4LdFYXTbqYNWDMOJLrnL4K8JzYLoEjpn/Ihj5CdjyHVMTUvgAs6qamtFI1L3Q4iTE8jXh72eYECTzXwsr/wNW3eeXaHlPSKHIglo66mDE1aiUyuH5MB0GOjoURl08tRYPH1he8ua3N53vQSI+4OLh3cJzYRhY8Uok8ngYec/Uki0cS+0SWU9LRxyseAxGHefmzHlaeH5MB4ARE0jK92desjWr+vqe1vZWXg8rq0jmvyg8L2bwoHEAHSWw6lrvyK77j8Ix1AlVyzQ+1yEWK3hy6iC07Q8tP4ZqOXVshw+mE6LfS+a5d7CXF7vKfs8Iz5MZDJCoI2HLv/DjoVvjMZSfnNST0KXlPDl1ALdw6Fkw8vMdN5Nn0ibH41Mw8gLoSHEs1GDg4+KsOgxGnAcrH3fL5nfPQtqayPVgxTqMlxby5NRmEEefTrdaCzQINi3vnoBR34IuHRCeN9M/IFFvRqJOgZFrp5Zt4ZgoirzPSd3mlszbL7wOJieg1RLY8pOFHQg0WdJAMPJxGHUiBdOF18D0Lq6q9oAWJ8DKu9MJqUAfx22Jwl60PNdVDn9+eE1Mi8CIg2BE6ugOb3zRRBNnusS7zUfnLh/eNbwepndIHdvyQ0jUdT4cpdsuhGZlaz5RLT7IS7ocwURpJ1j5cx+WH970IqsWwgAjbqBIdBzF+U29hPdnVsViZ9Tl9TihLZ5xr4ic4Ubcj3Gxf3idTEYof80PiqI5FxtRLYocVgFG/gZGHM0mdbHBRGl7xFLAigth1fqOhaO0U2Q1eTeDOBOl0vbhNTNNgiURRdDe7iZyNp/pQdXzlPyfZ/iZPFVPc0kUTVJnQ8uR8FqZ7kO5kUjUGf6Z1UNCwmfZDtH4qFtltMM3pVrybh4To7ea5FpYMRpeN9MEzs15GqWa5LaEo0EWJu3OpDwGwdY0FWIgKcTgG7Di78PrZjoP4pE9YeSXYNUD3o/UzjEwXfUJKfGTxi0w4rvQ8nMUEgMtPw8jvwYrL/M/m8dEmTrCT2dfUwtg+YJdYeS9LTsb68spo9ZDi98jFp91VrwXWh4CK/ZHtXworIp9XRwqJ1EfLOFx8hQNMJ+DV74XVp2M8dLu4fUz7cdV1Ith5b8gUX9MY+M6uLky4SejjTDipzBC0higOk2bnd/k0HZUKA56+BBYSSEKj7c0Nv17IG9HLPeZ/nuYJkAsrF9itfKVoB2yNLzgctiRo7Bo5Llb+1r4oLnFh+4CLT4Co/7cEb9WLVAURq52Rn0Si8Qrw/Ni8sfX6tLSwIibpyK2272cn650U+R+xLLqxoZ2DM9vJtzQ0HawogQjr/HhCuExG5H3NY06VCK9tfeA2QZ+GafFhS2FB5B5nJQBE30FxxzWVE4b7Mj+0OK//Re03QOWjk9fwfRrdh20ej/GOcSgHfiX26h3I1EXpUv3nPw3zYg+RIm6O2sVAExQsTl5TWa/6zIq5yNPZyd4Btxy+Spo+cfMW7S15Ri0OM1NDj0rPH4jpCZ0dFXmAZBFNBHT7kmiLkEsx0PTnskOtByGlj+GketSa3iG+99uWUXPdiO0WNqKxYJk+M3eys7y4fZ5dOL3bJ1nwMXivTDyyczLuHRSuoxioMJjN4PfpTFqbebzyKo0QJN8YhfCSuHGxp4ZnhvTGDDlvX2qkFUPtqVYWzPy1oo4n2KkwvNsFhj1Ydgymrb4aHLUcj2q7GdqGr8bl/WrVlsaQatjwuM2i5ucQ2VRv5bbzmAzmsrBU1Q+9UxU1IGcJNw4vsOIVZ+ClvfVfXlb3ONOikJFjFwHEx3birVUx18fZUM0m6JVX01Uo0PDYzLbwO9EaPkd/3ULb2ojoqxqo67Nq+0NjJoHS1ZTkwMgL9WcszC+CP3J0CXOwdsG5J/zfjojV6Vb7BQCMsN97bTI6azFqrzK3/r3xIqzmp5w6x9udoA3B46e+xxo+bPMVkrq3Pt32mULj50FTJReRsvCzP6uvOS7afgl3q3Q8jMw814enusg41siWTlO/jm/a5XF/9JOpRPTr/KcDHxXnyot52b4fVtTfbOlIit5nkvfQ9uniMVPM09MKxY4qiYYHjcrvsuFkd/PbMHlrbqDXMubYOQ/usrQi8NzHiSoSB/54WgX1aeQZB037VR9+WSib+Q5GcCUj+aJqUP43TAj/jezheItpujY8LitACO/QhPeFr+rW6qnuJAj08rL/ADVc3cOz7ufoZcKRr0VifwO+eGmlm3hvSqC6HlR+IqOTs5zMvBBwn5iasIBzhNTNiga12nxy0wTUz3KW4uWHd/TgZUnFWpiqst/iWuOXSt/6Yya7yb37PsdPPKzQcsvTPVp6+ZOWyOampjEaXlOBs7IsawWEyqKfUzN4H0FWl6Q2SQ/zk8glfC4rUA5S4WcmOryEb1+B289tPwRlX0Nr6EfSCPz1SQSdasfH0W1kGZSWkTwv/KcDGDFCj8xhb9rW6pPTLF4T57n0vf4icnI8zNPTL5RpfhoeNysUAtmxPInmc+nk6rn4Nny/c6Ir/dLThSlEiFRCbS4Id0EKJhjuxF5v6C4odkshG0BI77a/MQ0FS5wcHg8ZhukvgP5Fbc8o4WSLgF/kFdPd+i5b0Qsbi3cLs+2NJXiIu6HLX8ME72ZJIyJ0vNgyu+EUb+FVRv9hNSMP6VIoqWcVWsRD78nvM4s1Cprrmo6XCANPr6VE8czACM+XPObbHljZ5OveSRXww6/ITxuFmCj8fRceuyFoHu3qczvzdByZS816kQczYWVZ/lr6UZOWzvky46I7+WRp+b7Glq5oen74n2w8gJ35NteGB6TmQUqpAYjHmn6a1BXajZ/Ljxus7jK2PN97EkWR3yRVGt1TmViKau+yDl4vgsJJZlatcafc7MvXpFFH82kvIb8O+F1NwOS6LUw8oZMeZw+nEac4Mbm5BLnN1AgOYzM1D9knhDS8P9HKb4lPHYzQKuPIFHNreGLKu8g90XqNsJEF8GWR6mMbHjN3SINE1GfRaL+5CekrB+loiu1WFZl7aLjrHgJrPpJGi4yw/G3JT8xyg0ww+9kx3dG6KvZ0uBM88yucUZm6qkFK5b6ROJWzqGImmozpZ6EkT/x9a0XjTw3vP5OQctLJOXlqb+kgBHb7VCaYnQNpTuF92NbuIraA1admblWGC3rtbwEi8u7hMdmGgRxeS602NhSjAoNgETdilgsbnRd73OtjPyEL4/Rb5PSdNVz8LSgKopnIhbvwrGtVWNoBpjSW2Hk8bDyej8Z9aIfrxX5D6d8hFwOFCjpJrdeQQK2/AZYuRK2fHO6ATDD8WYTBeNWy1RyZZKtpRZIwwbEb1v+gqamMz2Qc6Dlopl2I/xOYFXu46z4IKy8JA3a6+NJabpoMqiFQlABNWh1AuLywe0otUL5fTCRhhHfgpF3pH3aWny+vax6/qOR98LKc2DEiTDRMmhJFuRyZ+Q/+5It3p/UojU54a2lP8HOe3X4XJgmgVZHegdfli/EdPn4Hp/cS00AbknTOMQPEYtTfc0jI6+AlnfW44C2+PeDID9Bza8vM1bDyCuhxUmw8ihY8Upnx3akyaqRr63PfF9xxA7OvO2Fvq46fe0p8NPIm7wVTBNSKy9Zv4msRbon9XzM+nine0SBva3eq6nIc/lPjTw/ZhZ8sXgjfpHbZFGv71xvi0MDgkxjWrPXcs+2+DeDpnouFd2TtHvHU87Ih2HEtdDiTP9Vj8UKb33GcnyTyothRYxE/j9odQa0+AWM+LNvGWQk/P3tpdba3RKNwekK/z6L0sYH12PlYOVTthXqg4VquT1VJFu1xPpd/kvbYNurrcnXQ2rDs2M1pnoKihbHsLWUI2l9JnFOYcqOsNLBvjWFP8vqrmh1oOUv3Rh3gM4dGPEOWPlgy2ttFmuQ5DsFqSecieaH7xSTEy4WX+eJicVqQhS3FIuzndqvsJH+PQ+WRK+FFqu93yJ8ACwWa3OlMWqPuHj47eG7xOQMtPhUT5a8YLE6KdpsoIkpFt9mh3cHSFvyyOt5cmKxtqG07fy9iEt7hu8Q0yZQiY7D0pHm6hyzWIOktCPLp9ha6iA+ly0Wv8kt6JLF6if5vorydsTyNeG7w7QZaLUEiVrXlqBLFqtXRasIby3JlWwtdQGsPJqCLn/B4QMs1jSlq4jLsaT0svCdYToEqkLCiA1sNbFY9ZriciPiaJytpS7iM9i1OJN36FisqbilX7uFoy8I3xWmwyCWfwcj17gqW02sAZavAiE2YHx4JHxHmC7gxsb+CkZ8zdcRCh8WizUoSq2lH7qhoe3Cd4TpEjDlvWHkH3lJxxpIpTWzHkNFHRi+G0yXQRx9GhMcdMkaQKXBlCe7hUPPCt8LpsvQ9ii0uInDB1gDpXQJdyfG1ZvDd4IpCNDiA1wtcXBEDSb8nwc1XKTeJ1BHn+HwgAKDiSN2go6uYqtpMORriWuxClre5+uTD1o5HN80QtzgKuoV4bvAFAzo6EhYxb6mflethC+S8g3Q0bkw8tu+HRTtzg6CBVXvehJHx7O11ANQyyAYcT6HDwyI0oamD0GLryIW74FVJzojHvZWcz8v69OyJr+DXsBdT3oF6EjBqicGpmHloGtTy3NqF/UOt0TsCytO9hMUjYF+W9pPdT2JjmRrqYfwQZdafI/LogyQ6ln1Rqx2Rlawcu5zXDy8G4z8PJLyHT7GrV8mKKrjbcRPqZloOPaZgoPK8IHUpLFvBiOrMdV62cGoL+Oo0vP8WEiivVCRp8CqB3reB5Uoh2r5Me560sPAiC9T0ay+9TOwZlat2zJi+ZPpxdJcLN8Oo74KIx5NfVA9Ni6mwgPED93Y0I6bj3amZ8BEaXcYed/AbSOz0o/RsvlUBuQyZ+fuWx8TviLFuNgfRv4nrHqypyYoHx4gH4QpDW0+0pmeA0Z8nJdzA6pNk9PvEEcHbzYuJkrbw6gytPwfWLnBx0GF/75ooompIs5gh3cfgOTwl0JLTlUZZNHyx6q7EYvRLcbHyrnPgYm0s+py7yAvqnXtd+HkPdRbMbwGpkeBFkv9gGNf0+AqXQathpYz1ivyO3hanAArH/AfsaKNFQqH4K4n/QWOOexF0OJ/OXxgwOUtJ3knxrfuo0ESvQVW/QhWbUgnqBmO02nRpGTl9Rgv7R6eL9PjuFi8F0Zu5KDLAZefnMpXIJb7hGOkDpUPcaZcgZU3uuVdzsGzymHp6HqMixVsLfUhNNigxYXsa2L5AEUrr8Diea8Ox8l0kESvhZWnULJw14oQpsGUF+PY0k7h+TF9AqwopV1VuvgFZBVDtFtn5H85K14SjpMQZ+QYkpEb/M5dJ31PFExJvRONrLC11Mf4VBUrv8lWE8srbQz5zUbqZJN/x1VHvg4j0bHxkzq8/9tV1LPD82H6DNiR/aHl4z0TVMdqn2gM0DZ8RUzSRyscKyGust8zYNVSGHl3260nspaMfBJmWIbnwfQhaWCd+FJPBNSx2i+amBL1CGLxrnCsbA1U5SGw8tfe79SuD5y3luR33NicWSdMpk+Alm+kbeOOmeSsYivNP7sViw9/fThWtgbM6MthxUmolpH7rl3VW0trsKR8QPh7mT6GHIkw4l8LGUjH6o7SyelnFAkejpet4SbHngkTHedrf+X5kSPHvI7+oxHfF9NnIJZ/w11VWFOiD1RafO1jze6AwYh3wsi7/NKu1YBMX/BO3AFT2jv8PcyAACMmvI+ArSYWaaJM8U1/gZbD4ViZDWh5CIy8zmcXZB1PFEw5Ud6AWHy82cmR6SN8AqcWl7HVxJoSBTRqeQnGh3cNx8tsIBndC1ZdnO7YzXDs2ZSGB9yAxeVdwmMzAwbtxvhUlaxfOVZ/yVstI0BFnJDFaoGZ93JYdWbT4QT0s/S7qTdiht/L9BlYdNBzYcTZ3FWFNaW0A8laxNHccLw0AsYX7Oonp2aWdWlH3SuwaOS54fGYAQVGSFTLj9A27RYDhjWYSieKX7vK4c8Px0sjYPnwrjDyxw1NTmQpWQXEpaPC4zADjE/wNfIb6SCaYeCwNhe9aLRpQDmHteL/M6qX+7r5a/S7dCuzLq2wtLyLt8ZnSwD2eXvifE49YbbA2dLbfH1wdoRvXTTZkO+E0iW0WAej1sCIPzstfgkdXeRlxC+g5aW+2qKRj03llrUzSrpdSltw3wY7/IZwvDQKFo28FFb+bKu1wGjys+oJVErl8N8yjAdGnJhWupxhAA2yahNLWghfXAEtvkhlal08uptbNvoC+tJPl+/pZuQLa0X/l8HI7yMp3wwjn3LL53e3vlEz2tSV5N8oTy4cL43irNgXRlw7o+XkdwHF9ziYktkqVE8ZWnBXlbroPvjaRepWGPnvFN9Dy97wvjWCq6hXwIjFvjuJkQ/2TH83n0tXvn9bVS8bAUYcBCPuolipqWOn1vnDGJ93UPjzDLMZ0PJDuUTw9rLIv+KXMerPzshPQpfeFN6nVqA23rDqZBjxWE+kBfkUEXGGq+zXkg8IJno3rHp8qh6YjzQXJ2X1YTEDhE9VMfL6Gc3uQRC9LFZthFXfpYDB8P7kha+NVY0OhpE/QaLyT4TNU7WCbdDDTUeEh9CHzyf+prt+q7mON9Mw0FGCanl94b/keYv8KUashlHajY09M7wv7SDdES1PUAcTN1HgXdHUEX4ejm48yXcmKE4JRvzQHfdOh1h8lK0lpmFcRb0YWv5qoIIu00npasr5Cu9HJ/C5Zlpe1VDcTzeUFm4DTHRseO7Ngri0J6w4g60lpmmQyH9AVT1a6CVGXkp3hs5DLF8T3odOAj38OjqPwi6j0+XX73D03J3Dc28W2uXjnTimadwPxv4KsfhZYV+SPETLJpqUEnmOO069OLwH3QB67s6w6uzMibDtFFlN1TLl0XE+G9M9fKoKxd70wrZ2FqUNIH9DW/nhtXcTGPF6GHllIcsfp+3Gr4Utb7P1E8O0DTc5tB20vGCz2JN+UbpVfWfeoQB5kcb9yHsLee9T3+MnG2lgwDBtAYlc0Hd96Lwjl0IC5KLweosEYlml5NbCOcN9Dp28xy0R+4bnzDAdgRoiOiMv76scunrA4A+K/cXHiiN2gJbnFvLep+EDp7o5k08Pz5thOgKsmPQ5XuHg7EX5F0regiRqW/BkniBRB8LIR4tpNYnHoaNDw3NmmI4AHUUw1CSzx5d0VPenWl5P0cfhNbYLH1Boxf6wpSMQy3FYWYVRn4URH4VVsc+f02UFU957pqBOlErbw8pTCvdhmErbEefPdN4M03aweN5fQ8uLej7gknaUYnGrs2MvCa8xTyg+B0k0F3H0aSr5AS3+5Lf+aXJZsSB1HtOfj1vg/wstn4SWqyhsAVp9JNzxQpUK+Y2sKdzuqC9ZIh9vplkmw+QKZdcX7qvdjOqFz4w4Mby2vCDLAUmkyIqAVQ/47X6ahHwpmW1MKjThkB+pVhKFqhn45OGJ0k50XEwcsRO0+NVWaxp1UxQHZqKL6ufKMB3FL0OMXF+4r3ajSou7PYpY/l14bXlAYQdI5I9gZdr8MWtdq9oSKZ2g5BUulm+n4/vt+SJOTPUJP5ZVDrpkOg50+QC/RdyrKSo+bkleionS9uG1tYKbnHy69xNZudpPHHlN3PTC09IzKd/tKqW3IZYLyNmc2/HzVLqhcCO1DQ/vD8O0FRx99HOg5TWFjEaeTWS5+M4f1EjR5fZVp0nOO7KterJtgZBUOTNRd3qnuZZ/KGToAMlPTtHxbDUxHYcaIRZyOTGb6hNT0nyH2a3ho+Kt/IK3INttRfrKB/J6ql9USIuJlEbSr8bieZyqwnQWH5RIlkEW30k3lTZSXIel5b3Da8oCZcYjjj7hrZdOhVBsy3leBNXDB3T0FbaamI4CLT7nv9i9NjGly7gbqXlAeE1ZgI6ORKIeb7ul1GtKraa/kE8svGcM0zZgomXQsni5W7OJvuRW/hzHtr6ljWr5bylyvK/LwbQi31Ul+r6zYzuG945h2kLNAdubE5NR51FLpfCamiHdgZNf68kNgE6JQgeoPngsRsP7xzBtAUZM9O7EJC+gCPbwmpoBSfQW39mkU36lXlXai+5Cd2RrHwKGaYjenphEyxYTjPy2d3j32vV3WnR/yN8Uy6PCe8gwuePrA/XuxHQxFpd3Ca+pUVx13h7Q8u7CxhEVTakj/PeuMlSIksVMHwMtPuUnpV6bmNKX5DZn5KvCa2oUWLkSVbWh5669W6pbTVwfnGk30NEpmXPAuikfxyQ3Ihl5S3hNjeCd3lp+x1cGCI/N2rrSriq3cZsmpq0UtpribJpKSYn+b3hNjVDrTnwp78Y1KZ/vN0KlZj7LVhPTFrBybpor14spKSQ/McmvZMmVQ0Ud6P1LHFDZvHwMmVrdrqoOzIDjKmoPGHl7T1pMJD8xqZsxUXpeeG2zAStKHCbQgtJieKe7sT250iWTLzDRu2Hk2p59OdMW10/BqHJ4bbPBE1OLIh+fUVTSOLckaobxwESf9su4Xt2V8rtE5O+Q3wivbTZ4YspB3hGuzuNedExuTLUR6uXSuqQ0AvxuV1V7hNe4LXhiykFpL7/1iMV7wvvLMJnAxMibYMQd/eD8xcQImq377bvE+OqRvX/9XVWaqnIFFh303PAeM0zTIBbWb5X3WvzSTEqL/d/rkrSWdiOgIv4eWt7XDxNzV+WX04qCLt/P4QNMS+Co0vOg5QV9FcNDnT20uLDRHbpaqZMrudRJDqK4Ji1uwJK5fxveZ4ZpGB/Dk6hHClvSNYt8wKXPn/toeL0z4dsyaXFOz/vYiiC692l/v4+7OXO4vTiTDRjxpb60FNKAyzXUBy685pmAlp/x96EflrPdVnrv70V86J7hfWaYWcFS+Zq+9q3QssLKOxCXDw6vPYQc4M7Ih/v2XnRatEMai9PY18Q0De1epUm7fbSMC+V7t6mrnBX7htc/HVdRz0YsruwrX1s3RZUutVwLIw4K7zXDbBWY8t4w4q6eTUFpRjQ5WXUTTGleeB+mAyM+nDZj6OOJupPyVpM8143N4aBLpjGgo9N7NmE3i3zvNvEgjDrOLRx6Vng/CEyUdoKRqwZisu6E/AaEfMJVovnhvWaYLYAR74CV9w+cP2XCxzgBRv4n9MibwvtCIBYxkjLYCZ6TKHQjpuqirdVjZ/ocn35ixNlu2YBujddrCFl5t9Pig7Cbd5alqGUY+WMOHchJlOCbqI2Io3F2hDNbBVpFsHJdX8UtZRFZi+QDSdTVFCowfecOZt7LUR25oi/DKLoh+hBQC/Tx4V03H40MU7eWtPwf9qFME+3Cpcm/q6HlRbBiknaSUImORaJWD9xyt13y1QfkP7HVxGwBTHQsjMTAW0uhaqV56wGWVGkAWjwALR719yv8eVbzShtGrA6XzsyAQ85HaPE7Xp7MIvJB0cTNk3e+qndV0fILbDUxU0Cr96M6sp5jdFhdU5q/eD/G53HQJTNnjouHd4OR13BUM6vrWkb1wcX33NDQduE4ZQYI3zPNRMf3Tb0lVm+LUlWsegK6seRqpk+BEa+HlXfx7hKrMCKryYjzKT8xHK/MgIBYfqIQSzi21lh1UdAlReDHpaPC8coMANSEEFo81NUdprR99xpo+WhXz4NVLKVlUa7EsaWdwnHL9DnQ0Te7Xvws9SncByN/QnFBXPCf5VULy4AWH+DwgQECcXQwdPRQIXxLPrJanQ0jvsxlRVhTSuuD34IlZa4PPgg4O7YjdPT9QviWSBRN7X0KchxafoeDPFlePqGaqg9EJ7LVNABQm2wkal2hlk1UckSLX6UxVeJMX92gm0tMVjGU5inehfHSW8NxzPQRqbUkzy2MtVQX+ROs3AAd/R9fa9yoq9PYKl7WDbwofCCOTuWuKn0MjDi6sHW8006tv8WKA3aALr1pKhq9iOfK6py831E+DB0dGo5npg9wk2M7wsrLaNm0xcMvgshqStQ6GKXpfFGV+8DK33NUOss7wmPxU05V6UOgo8RbH0W2QHztbXU1+Zr8OS+e92pYeZavP85xToMrHzog17uKHAvHNdPDQM/dGbG4sXC+pVBTnVqjf5w69/EFu8LIdBeRJ6fBlQ8fiC7lVJU+gloPoUpF9HvgxU47td6GWL6mfv7eaW/UF9PJqaBLUVZ7RVZTlZb6YoLDB/oAV1V7wMjbC28tTRd1z9Dy89OvAxOl7WHlP8HIdYUIDGV1Xn5ciOtcRb1i+thgehBo8ame63qSLtkehhX7b3E9VrwHRv7J+516wQJk5SpMjAJGfJytph4GSbQXrPhzz1kY3tfkC9T/yP1gbItOrT6lxsrfsFN8AEXBuEbcBT3yunBcMD0CjPxGz3Y9IV9TotZCy38Ir4twVrzEXx9NTL028bJaU1p94EtsNfUgqFJZE7m2p19aX2pVXkqTUHh9hKvs9wyY6DhY9SAHYw6Q0g2StVS6JxwTTIHxJXO1OKfnE2KpXtPSEUCLj4TXOB3o8qFI1FX+ennXbjCUVh84x41tudRnCgpseRRW9ba1VBd1z7DyfmfkfuF1TgfJyEuhxck+QblXl6+sxkVWk1VrEZdHw7HAFBAsGnkutDjPO4bDh9mrSju1noVSafvweqfj3JynuVi8F0au4l27ARCFD8TiZ9QXMRwLTMGAFsegOvJkX+1W+TrQciN0tCS83pmAKe2NRP2QrK2+sBpZM4vGxcTIeujSInaEFxhXUS+Gkb/qK2uprrQ2z00Yn797eN0z4ezQjhQlDCP+zL6nPlZaleL3WFJ6WTgGmIIAE+m0rMkMD7Af5E13+U2KAg+vfWtgPNoLRpyNpLyRfU99KBrrPnxA/iNbTQXEx/XE0aq+XrqkpVGewrhcGF7/tnBjY8+k6gqw6lYOK+hDkSNciz9hotSQNc10EKfFB2tFtbZ8cP2k1BF+i6vM2yO8B7NBBeicEV+HkfDWE09Q/SEa8zQ5xdEX2GoqELDDb4AWtw7MUsX7FaIfu4ULnxXei9nwycCJ/AdY+Qd/v/rZwhwk+fABeS/i8sHhM2e6BGLx2YGq9DjVd0x+KLwXjYLk8JdCy88hUQ9xaEGfqOaDdGN7PjN83kyHgVFvRVK+Y2CspboomdOqB2BKQ+E9aQZUyiVocaG3nAbtHvab6Bkm6mGMD8vwOTMdpFaj6BS3vMfKmuQlv6STV7XaFNFVxp6fhhaoVWloAVtPPavlPr/yLAoXCZ8z0yGgywdQMuPAvkj1rWIjvpvHQMR4aXeqlAkjn+BqmT0qaqBaVU8hlkexI7wLuMmh7aDFDwd++VEre4JYfJhSUsL71Cw+AdqoebDyZxSa0JfBqv0uv3MrfkuWcPh8mTYDK0owYgN/1Wly8v6mJ2HFMeF9ygpN/M7Iiq9aQC2vePeud0SpKokCdLSSraYOgiOoKaS4cOCtpelKa/Tc42L59vB+tYIz8lXQ0b/AytX+fg/qsrnXlFpNq5w57FXhM2XaRC2DfiNbS4HSGj03QI+8KbxnrUJlV2Dk6TDiMc696wHVyzNTKA1bTe3HLRx9AbT4Nfs+tiIajIm8yFUOz72TRurXiyKyVqf8T4MSO9aLIqvJytsp4j98lkzOQEsDqzZyQOA2VKtuiKXlXcL7lwdUFwq2tAhWXuInJ/Y/FVdpy6eTKF8yfI5MTvhoZSNuZt/SLCIrhgYkVRVYPrxreB/zwi2khgiKao6nycG0vGMLqliiDAGr1rQaiMtsAxjxPp6UGhRZlDQ5WXXm1poZ5AWS6LVIyp+Alvf558PPqFjaVB+craa8gS2/Glrew8uGJkSTE0WHW3kWFh/almXddGDLb4AR34JVqzlAs0Aiq8nIddByJHxmTIvAiBPTInDsW2pK9WVdG31OIa6i3kbNOmHlOk4QLoDqO3RGXIyJ0vPC58VkBKa8N3Uf5SVCRtUtJy3PhRWvDO9vO3ALh56FWIzCqDOhRVo9kyeo7omsponyU4jFCg4fyAno6PTcwgMoQLDuB6nLO237/KXZNDldShUZwnvcLnzXGjv8Hhj1O1i5gSeoGUTjj+4LLX9pnJPoz3kHtHrLWV7B9cFzAFoe4vuqtepbogdNmddGPEUF+ikqFlreBC3v9InAdPx+X3ZM+ZzUHyilJ7zX7cQ3R0jUEmh5mX8R6XmE5zdoqo05SpqGkbc4Iy/3Hw7qvkx/NvIW8g356hmtjn8SPX/KEKhEx7LV1AK+rEksvtZSWZPa1whGXQ0dnexb3Ri5n4tHd8N7570csdwHVrwLWkw6K37pH16/LxnTJpr3wUTLOt3JlXwcsOr9SNSVPoKcWkyF59fv8h8I3/XmAWhxhm85NkP3m1q1h2Nh5Ldh5JpcOkun/sYzcfTc54S/j2kQZ0f3pRiMzOZs2vJoDaw4AXbeq8PjhyCZ/yLq3Qarbuz7Lzp9OZPyemj5FeriG96LduNz8KxcCSuvH5jldF3pkvq/MS7eEd6XreGT1q28rOWPJiV8J+ohLJ37xvB3MA0CIz6a+SuRhuPfBSPeGR53NiiEH1Zd3feTEw3yFQto8v41kvmvDe9DJ3Dx8G5Iyst9zXaynrwPaoZz7QdN1c+SP8aiw5v+GPh7ZdXZLY3L+g5dJdK8nMuAd5oacW2mtXUat7G2lbgNVOU+MPKGvl1q0ASQViS4Dlouz9LYIE/SZYv8PBJ1u/8YZf0gFVk0IVh1iVs4vFt4/Y0CI14Pq65taXJKO6p80w0NbRcen5kF7/Q2Yl2mID3yoWhxQnjMZnFGzac6R5mXkkUU3c9l88mavM0Z+c/tTFnJgqvO2wNafM6nueTl9C2C/EdAPILx0rzwmpsFWi5Eoh7PPC7Tc7nOTY61XPV04HCx/Gdvdjbrd/DN/+Sd5NwOj9ksrqKeDSPOb+nrVBTRICbfhlFrkMhPYyL/0ih54paIfenjAivvniqz0uxYKIpqGyqUu5jH8gkrjtiBlt+Z/U21SdK9r72pSn0JjPhppgkhDQk4Ma/dJv91qpbRsy9FfVdSyyeRqFMQz/u78BqLjF+6GPVxGHF/z/qgvGtBbKDKGHlMTASsmIRV2cZl3dVRUQeGx2W2gY95If9SsxMTFWKfGNkIHR0ZHjMrsGJ/aHF3zy0p6qkoVj0FIy9AEqle9ikglq/pWR8U7YT5ZVy0V3hdWYEpzfNNI7Is59KJ8jHo8qHhcZltQBUYYeSfmjZVaQBo8SjiaG54zKxQlKwPeOulF8FHEacF42DKi11lv2eE19Wr9KQPKj3Hh93CoReE15MVmNGXQ4u/ZPLB1iamvMsw9z0wIxJG/KXpQZfWOb4N48NvDo+ZFZ/zpeW5uaXEtEtkIdWXbVZeDytWuIp6cXg9/UJP+aC831P8nnaaw+vICk1y0PLBpt8REk9M2YD13WEfavqmp76UPyAu7RkeMyupA1yeX+iJqZbzBy0egFWTFO8SXke/0hM+qDQs43YclV9mvzPyha1OTM0EeDLenyDelTaybPKmp0u5tUhyXMrpBTtTuYhCTkw+54yWbOpeahTgKvP2CM9/UCi0D6q2lIOeu3N43lmhXWen5cOtTExsMTWJM3Is08RE/bSqZeqnlZvzu7ZkuL1pf1c75aN3vWN7Paz4HpdN3UQhfVDpB/NxVNRh4flmhYKHaac1m/O75otNoq5E+/csSEaHMy3lSPVwgck5Tw+PmwUYcTQmRp4qhP/CZ4fXIrapU64Vo5ToHJ4zUzAfFH0wLTWgFCfkFi6gxUlIytjidzWiNNZvlZtsva38QAEzn7ZCs62f0+CxG2nXIjxus9TakJ/RUnWDPFSveJD6Kq6BKR+NxfP+OjxfZksK44OaGKUeb1dSKEx4js1CSdcw8qbMVnw6Mf2Ya4A3Cew7Xwktbsl042nQpbsg7w+P2yzkq4KRj2Yyl/NSfetfi1uhxQfy9FMMEl33QdHHhXw7cXR8q1aTtwRbCfqdoJpMYrLV8xg4KO6GKu01HWBZV/pFuAdx+eDw2I3iW0Xp6FJ6iFscvxOiydAvS9U9MNGn6cUKz5Fpnq76oGjndKJ8J+WBhufVKK4ix5CUsxdO9GEl3vnNO3JZgBbf8jc/81fBWxlXw47sHx57NiixlUpT+K9qp83+Wulfv52bqK8ijjJPrszW6ZoPijYtEvUH6OHh8JxmA0a9G4lqPvB4unxlAXljOzo1DwTe6WwEMi+jNiVO3oFYxM7OnkntK2b63Q7x29QXkfF3Z1F9QrJyHaw83xl5OPm4wnNk8qXjPihdTxWSDzojP4mjDtl1W3mdqZ9z5HXQ8nOw8pGWl6BkhY9Hn+jl9KSu4h181EAxq8laV7qDtQEmuhSJOo4K8dM2KUVF+4qVS8p/66zYtzYRng+jnvQDtJOTUprTBhj5GypsR9Hm4f1g2stmPqhawOoWzylP0bhON2rugBGn+vFHeZl16fIBGFdLYOQ3YOS99Z/f4jjNKN08+QuHl7QAfUUQi5Nb/kKQ/DZ7vfY3ZXkLakDwc2hxIbS8wceDTIymP5PVQsui2hcaiboKWizlOszdJ/VByS/Aqvu8D6qd46E+LmdTXstMspao3veKI3YIr5tpAirL4Kx8ONfB4XdHau1yalvwuTz0RjU9p83Iu2Dlh6j+dXjtTHfxhQrJx2fEo36c+MlhhueZl+q1xzbTDD+XVX7loNZARyq8VqZJvNVkxKldjyPKS3WrTctHvc9AD78uvGamOKT+nfIBsPI0ipSe+pCFz7Xo8v5WaoAQfWtb/iymCZCoA2Hk/W1f87dTNDDScraPwIjv0mDnGJLewU9QRhwEq86ALd/v8ybztOLbLV9qWt6TZz0oxu+cyONbCijrlmo5bT5uRIvzEJcWhNfG9Baw6jAY+Z+Up9gTDVJrrgvoUm7VM5kavsSDr73d4d2yrKo7NX3lQnURTHQs77T1D25yz2f6PEUrz/LPu9O7uM2ILHUtv4MjDmCHdztI403k9ZmjwTulTTltt1CxNk4h6V98V2GtjoRRl8KqjR2PfduWyFqnXTirLsQxh70oPHcmR6CjyPubijg5+Zw2H9X7R1j1b5hY8LLw/Jn+hArAIVHJVB/CPEJcWpWflOSVMKW9w/Nl2oCfnKrlewrx8En0hUy/TNSH/quIR3Krnsn0Fojl30CXP4ZE3Vr3LW4xXjqh5dSmS1yNeN4+4TkybQRxSSChyYmcjzM8mE7Ib8H63Q7Aqu/CKI6mZTy+xbwRX4WRnV3e0e9Ju/1eDD33jeF5MR2A6hVTxHTHY0vqE1KiqE/YJYiloLrg4fkxg42rVJ4BIySMungqgjscS3kqDdjd6EMalpTYjdBN6AE4I76OpPwk7T603XqqO7a1vIraInEKCTMbvpuJlSspDaot8U804flUE3knYllFiSuaFgKKzaj1cr9oqgBY3hNU/eFbdbOPqVq+YNfwPBhmW6ASvcUH11r5VC45ePTvfdCueghanuaWyP3C38kUABxb2glJeQJW/rqe+pHGEtXyjsIHuzX5gLRaPl09hYS2/nX0MSQcOctkxxdAjOUC2PJpvnR0fYxOH6de9dy5aflz9Pf1n/XlccRDsOLkPBscMG0Ei8u7+JpKVC6CwvCNXOcfqremRjcl74aiv6tHaRu1HlqugRFnw4jFGC/tHv4ehskK1dqGLb8BVr0fWv4P1YKClU/QRspUcG5d1MhAk++I/l48ACN+4ZeGSbQX5731IP7rRJOULY9Cy89QiRNn1eXQZP2IVZtL3gKjroKRF0GLf/PF/sdLu3MHEqbd+IaqEwtehkQOw4gJXzxOi9NgxNego9NhxadgZdX/fTLyUt5o6UOcm/M0KjHimwVOF/2/yYWcMsIwDMMwDMMwDMMwDMMwDMMwDMMwDMMwDMMwDMMwDMMwDMMwDMMwDMMwDMMwDMMwDMMwDMMwDMMwDMMwDMMwDMMwDMMwDMMwDMMwDMMwDMMwDMMwDMMwDMMwDMMwDMMwDMMwDMMwDMMwDMMwDMMwDMMwDMMwDMMUkP8PFwfDpSskNVQAAAAASUVORK5CYII=;" vertex="1" parent="1">
          <mxGeometry x="577.02" y="1090" width="53.41" height="51.22" as="geometry" />
        </mxCell>
        <mxCell id="SERmCTiBr_25booTLpWR-14" style="edgeStyle=orthogonalEdgeStyle;rounded=0;orthogonalLoop=1;jettySize=auto;html=1;targetPerimeterSpacing=5;sourcePerimeterSpacing=5;strokeWidth=4;strokeColor=#99CCFF;" edge="1" parent="1" source="SERmCTiBr_25booTLpWR-11" target="SERmCTiBr_25booTLpWR-12">
          <mxGeometry relative="1" as="geometry" />
        </mxCell>
        <mxCell id="SERmCTiBr_25booTLpWR-11" value="Staging layer" style="shape=image;verticalLabelPosition=bottom;labelBackgroundColor=none;verticalAlign=top;aspect=fixed;imageAspect=0;image=https://cdn-icons-png.flaticon.com/512/2530/2530064.png;" vertex="1" parent="1">
          <mxGeometry x="470" y="1110" width="72" height="72" as="geometry" />
        </mxCell>
        <mxCell id="SERmCTiBr_25booTLpWR-12" value="Core layer" style="shape=image;verticalLabelPosition=bottom;labelBackgroundColor=default;verticalAlign=top;aspect=fixed;imageAspect=0;image=https://cdn-icons-png.flaticon.com/512/2530/2530064.png;" vertex="1" parent="1">
          <mxGeometry x="671.5" y="1110" width="72" height="72" as="geometry" />
        </mxCell>
        <mxCell id="SERmCTiBr_25booTLpWR-13" value="Datamart layer" style="shape=image;verticalLabelPosition=bottom;labelBackgroundColor=default;verticalAlign=top;aspect=fixed;imageAspect=0;image=https://cdn-icons-png.flaticon.com/512/2530/2530064.png;" vertex="1" parent="1">
          <mxGeometry x="870" y="1110" width="72" height="72" as="geometry" />
        </mxCell>
        <mxCell id="SERmCTiBr_25booTLpWR-15" style="edgeStyle=orthogonalEdgeStyle;rounded=0;orthogonalLoop=1;jettySize=auto;html=1;targetPerimeterSpacing=5;sourcePerimeterSpacing=5;strokeWidth=4;strokeColor=#99CCFF;" edge="1" parent="1" source="SERmCTiBr_25booTLpWR-12" target="SERmCTiBr_25booTLpWR-13">
          <mxGeometry relative="1" as="geometry">
            <mxPoint x="557" y="1156" as="sourcePoint" />
            <mxPoint x="677" y="1156" as="targetPoint" />
          </mxGeometry>
        </mxCell>
        <mxCell id="SERmCTiBr_25booTLpWR-17" value="" style="shape=image;verticalLabelPosition=bottom;labelBackgroundColor=default;verticalAlign=top;aspect=fixed;imageAspect=0;image=data:image/png,iVBORw0KGgoAAAANSUhEUgAAASYAAAEaCAYAAAC8fPoMAAAAAXNSR0IArs4c6QAAAARnQU1BAACxjwv8YQUAAAAJcEhZcwAADsMAAA7DAcdvqGQAADCrSURBVHhe7Z0JmFxVmfejgyKK2yggjgsjLoiyKDpsMq1A0nXPOdWd+NE6snyRJF33nHOrsxAdRR17Zj7FXWbUEVEWcV9GEGTRYRwFZURkk0WWsAgKhFUCYQlJ/ud73nOrOp2TTrrq1q2qW1Xv73n+D3lI5/Zdzj33Pe95lzlzGIZhGIZhGIZhGIZhGIZhGIZhGIZhGIZhGIZhGIZhGIZhGIZhGIZhGIZhGIZhGIZhGIZhGIZhGIZhGIZhGIZhGIZhGIZhGIZhGIZhGIZhGIZhGIZhGIZhGIZhGIZhGIZhGIbJFWfkC52Rr3Lx6G5TMvJVSEZeGv4s0ye4sbG/woojdnDLRl9QGwCbRP/PDu3oJoe2C/8dw7QDV1HPxni0F4zS0OJkGPFzJPI6aHELtFi1SfIWGHkjjPwdrPwRtJhEVR6CidLzwmMyPQL03J1RGXkLjLAw4lQYeRG0eABGPriZtHwAWl4FLb8JI96H8dIQYvk34fEYphVcpfIM6JE3waoViOUlMOIRWLHBJWXnlo44t3TUuYmRmbWs9ndGOlj5GLS41Rn5SejyATjigB3C38UUEGfkfjDqfc7KX8KIdf6BVsuNqf7w6Qtl1L+6WL49PD7DNIObnHw6YrkASflUGPHY1HikCcmqVEY2JvpZ+ne1sQotn4AR33Lj8vDw9zIFAYk3jb8IK293y+enk0wzD336w6d/u3y+g1EPQEenw5SGwt/HMLPhEvl2GPltWPWUH5NJhvG4LdFYXTbqYNWDMOJLrnL4K8JzYLoEjpn/Ihj5CdjyHVMTUvgAs6qamtFI1L3Q4iTE8jXh72eYECTzXwsr/wNW3eeXaHlPSKHIglo66mDE1aiUyuH5MB0GOjoURl08tRYPH1he8ua3N53vQSI+4OLh3cJzYRhY8Uok8ngYec/Uki0cS+0SWU9LRxyseAxGHefmzHlaeH5MB4ARE0jK92desjWr+vqe1vZWXg8rq0jmvyg8L2bwoHEAHSWw6lrvyK77j8Ix1AlVyzQ+1yEWK3hy6iC07Q8tP4ZqOXVshw+mE6LfS+a5d7CXF7vKfs8Iz5MZDJCoI2HLv/DjoVvjMZSfnNST0KXlPDl1ALdw6Fkw8vMdN5Nn0ibH41Mw8gLoSHEs1GDg4+KsOgxGnAcrH3fL5nfPQtqayPVgxTqMlxby5NRmEEefTrdaCzQINi3vnoBR34IuHRCeN9M/IFFvRqJOgZFrp5Zt4ZgoirzPSd3mlszbL7wOJieg1RLY8pOFHQg0WdJAMPJxGHUiBdOF18D0Lq6q9oAWJ8DKu9MJqUAfx22Jwl60PNdVDn9+eE1Mi8CIg2BE6ugOb3zRRBNnusS7zUfnLh/eNbwepndIHdvyQ0jUdT4cpdsuhGZlaz5RLT7IS7ocwURpJ1j5cx+WH970IqsWwgAjbqBIdBzF+U29hPdnVsViZ9Tl9TihLZ5xr4ic4Ubcj3Gxf3idTEYof80PiqI5FxtRLYocVgFG/gZGHM0mdbHBRGl7xFLAigth1fqOhaO0U2Q1eTeDOBOl0vbhNTNNgiURRdDe7iZyNp/pQdXzlPyfZ/iZPFVPc0kUTVJnQ8uR8FqZ7kO5kUjUGf6Z1UNCwmfZDtH4qFtltMM3pVrybh4To7ea5FpYMRpeN9MEzs15GqWa5LaEo0EWJu3OpDwGwdY0FWIgKcTgG7Di78PrZjoP4pE9YeSXYNUD3o/UzjEwXfUJKfGTxi0w4rvQ8nMUEgMtPw8jvwYrL/M/m8dEmTrCT2dfUwtg+YJdYeS9LTsb68spo9ZDi98jFp91VrwXWh4CK/ZHtXworIp9XRwqJ1EfLOFx8hQNMJ+DV74XVp2M8dLu4fUz7cdV1Ith5b8gUX9MY+M6uLky4SejjTDipzBC0higOk2bnd/k0HZUKA56+BBYSSEKj7c0Nv17IG9HLPeZ/nuYJkAsrF9itfKVoB2yNLzgctiRo7Bo5Llb+1r4oLnFh+4CLT4Co/7cEb9WLVAURq52Rn0Si8Qrw/Ni8sfX6tLSwIibpyK2272cn650U+R+xLLqxoZ2DM9vJtzQ0HawogQjr/HhCuExG5H3NY06VCK9tfeA2QZ+GafFhS2FB5B5nJQBE30FxxzWVE4b7Mj+0OK//Re03QOWjk9fwfRrdh20ej/GOcSgHfiX26h3I1EXpUv3nPw3zYg+RIm6O2sVAExQsTl5TWa/6zIq5yNPZyd4Btxy+Spo+cfMW7S15Ri0OM1NDj0rPH4jpCZ0dFXmAZBFNBHT7kmiLkEsx0PTnskOtByGlj+GketSa3iG+99uWUXPdiO0WNqKxYJk+M3eys7y4fZ5dOL3bJ1nwMXivTDyyczLuHRSuoxioMJjN4PfpTFqbebzyKo0QJN8YhfCSuHGxp4ZnhvTGDDlvX2qkFUPtqVYWzPy1oo4n2KkwvNsFhj1Ydgymrb4aHLUcj2q7GdqGr8bl/WrVlsaQatjwuM2i5ucQ2VRv5bbzmAzmsrBU1Q+9UxU1IGcJNw4vsOIVZ+ClvfVfXlb3ONOikJFjFwHEx3birVUx18fZUM0m6JVX01Uo0PDYzLbwO9EaPkd/3ULb2ojoqxqo67Nq+0NjJoHS1ZTkwMgL9WcszC+CP3J0CXOwdsG5J/zfjojV6Vb7BQCMsN97bTI6azFqrzK3/r3xIqzmp5w6x9udoA3B46e+xxo+bPMVkrq3Pt32mULj50FTJReRsvCzP6uvOS7afgl3q3Q8jMw814enusg41siWTlO/jm/a5XF/9JOpRPTr/KcDHxXnyot52b4fVtTfbOlIit5nkvfQ9uniMVPM09MKxY4qiYYHjcrvsuFkd/PbMHlrbqDXMubYOQ/usrQi8NzHiSoSB/54WgX1aeQZB037VR9+WSib+Q5GcCUj+aJqUP43TAj/jezheItpujY8LitACO/QhPeFr+rW6qnuJAj08rL/ADVc3cOz7ufoZcKRr0VifwO+eGmlm3hvSqC6HlR+IqOTs5zMvBBwn5iasIBzhNTNiga12nxy0wTUz3KW4uWHd/TgZUnFWpiqst/iWuOXSt/6Yya7yb37PsdPPKzQcsvTPVp6+ZOWyOampjEaXlOBs7IsawWEyqKfUzN4H0FWl6Q2SQ/zk8glfC4rUA5S4WcmOryEb1+B289tPwRlX0Nr6EfSCPz1SQSdasfH0W1kGZSWkTwv/KcDGDFCj8xhb9rW6pPTLF4T57n0vf4icnI8zNPTL5RpfhoeNysUAtmxPInmc+nk6rn4Nny/c6Ir/dLThSlEiFRCbS4Id0EKJhjuxF5v6C4odkshG0BI77a/MQ0FS5wcHg8ZhukvgP5Fbc8o4WSLgF/kFdPd+i5b0Qsbi3cLs+2NJXiIu6HLX8ME72ZJIyJ0vNgyu+EUb+FVRv9hNSMP6VIoqWcVWsRD78nvM4s1Cprrmo6XCANPr6VE8czACM+XPObbHljZ5OveSRXww6/ITxuFmCj8fRceuyFoHu3qczvzdByZS816kQczYWVZ/lr6UZOWzvky46I7+WRp+b7Glq5oen74n2w8gJ35NteGB6TmQUqpAYjHmn6a1BXajZ/Ljxus7jK2PN97EkWR3yRVGt1TmViKau+yDl4vgsJJZlatcafc7MvXpFFH82kvIb8O+F1NwOS6LUw8oZMeZw+nEac4Mbm5BLnN1AgOYzM1D9knhDS8P9HKb4lPHYzQKuPIFHNreGLKu8g90XqNsJEF8GWR6mMbHjN3SINE1GfRaL+5CekrB+loiu1WFZl7aLjrHgJrPpJGi4yw/G3JT8xyg0ww+9kx3dG6KvZ0uBM88yucUZm6qkFK5b6ROJWzqGImmozpZ6EkT/x9a0XjTw3vP5OQctLJOXlqb+kgBHb7VCaYnQNpTuF92NbuIraA1admblWGC3rtbwEi8u7hMdmGgRxeS602NhSjAoNgETdilgsbnRd73OtjPyEL4/Rb5PSdNVz8LSgKopnIhbvwrGtVWNoBpjSW2Hk8bDyej8Z9aIfrxX5D6d8hFwOFCjpJrdeQQK2/AZYuRK2fHO6ATDD8WYTBeNWy1RyZZKtpRZIwwbEb1v+gqamMz2Qc6Dlopl2I/xOYFXu46z4IKy8JA3a6+NJabpoMqiFQlABNWh1AuLywe0otUL5fTCRhhHfgpF3pH3aWny+vax6/qOR98LKc2DEiTDRMmhJFuRyZ+Q/+5It3p/UojU54a2lP8HOe3X4XJgmgVZHegdfli/EdPn4Hp/cS00AbknTOMQPEYtTfc0jI6+AlnfW44C2+PeDID9Bza8vM1bDyCuhxUmw8ihY8Upnx3akyaqRr63PfF9xxA7OvO2Fvq46fe0p8NPIm7wVTBNSKy9Zv4msRbon9XzM+nine0SBva3eq6nIc/lPjTw/ZhZ8sXgjfpHbZFGv71xvi0MDgkxjWrPXcs+2+DeDpnouFd2TtHvHU87Ih2HEtdDiTP9Vj8UKb33GcnyTyothRYxE/j9odQa0+AWM+LNvGWQk/P3tpdba3RKNwekK/z6L0sYH12PlYOVTthXqg4VquT1VJFu1xPpd/kvbYNurrcnXQ2rDs2M1pnoKihbHsLWUI2l9JnFOYcqOsNLBvjWFP8vqrmh1oOUv3Rh3gM4dGPEOWPlgy2ttFmuQ5DsFqSecieaH7xSTEy4WX+eJicVqQhS3FIuzndqvsJH+PQ+WRK+FFqu93yJ8ACwWa3OlMWqPuHj47eG7xOQMtPhUT5a8YLE6KdpsoIkpFt9mh3cHSFvyyOt5cmKxtqG07fy9iEt7hu8Q0yZQiY7D0pHm6hyzWIOktCPLp9ha6iA+ly0Wv8kt6JLF6if5vorydsTyNeG7w7QZaLUEiVrXlqBLFqtXRasIby3JlWwtdQGsPJqCLn/B4QMs1jSlq4jLsaT0svCdYToEqkLCiA1sNbFY9ZriciPiaJytpS7iM9i1OJN36FisqbilX7uFoy8I3xWmwyCWfwcj17gqW02sAZavAiE2YHx4JHxHmC7gxsb+CkZ8zdcRCh8WizUoSq2lH7qhoe3Cd4TpEjDlvWHkH3lJxxpIpTWzHkNFHRi+G0yXQRx9GhMcdMkaQKXBlCe7hUPPCt8LpsvQ9ii0uInDB1gDpXQJdyfG1ZvDd4IpCNDiA1wtcXBEDSb8nwc1XKTeJ1BHn+HwgAKDiSN2go6uYqtpMORriWuxClre5+uTD1o5HN80QtzgKuoV4bvAFAzo6EhYxb6mflethC+S8g3Q0bkw8tu+HRTtzg6CBVXvehJHx7O11ANQyyAYcT6HDwyI0oamD0GLryIW74FVJzojHvZWcz8v69OyJr+DXsBdT3oF6EjBqicGpmHloGtTy3NqF/UOt0TsCytO9hMUjYF+W9pPdT2JjmRrqYfwQZdafI/LogyQ6ln1Rqx2Rlawcu5zXDy8G4z8PJLyHT7GrV8mKKrjbcRPqZloOPaZgoPK8IHUpLFvBiOrMdV62cGoL+Oo0vP8WEiivVCRp8CqB3reB5Uoh2r5Me560sPAiC9T0ay+9TOwZlat2zJi+ZPpxdJcLN8Oo74KIx5NfVA9Ni6mwgPED93Y0I6bj3amZ8BEaXcYed/AbSOz0o/RsvlUBuQyZ+fuWx8TviLFuNgfRv4nrHqypyYoHx4gH4QpDW0+0pmeA0Z8nJdzA6pNk9PvEEcHbzYuJkrbw6gytPwfWLnBx0GF/75ooompIs5gh3cfgOTwl0JLTlUZZNHyx6q7EYvRLcbHyrnPgYm0s+py7yAvqnXtd+HkPdRbMbwGpkeBFkv9gGNf0+AqXQathpYz1ivyO3hanAArH/AfsaKNFQqH4K4n/QWOOexF0OJ/OXxgwOUtJ3knxrfuo0ESvQVW/QhWbUgnqBmO02nRpGTl9Rgv7R6eL9PjuFi8F0Zu5KDLAZefnMpXIJb7hGOkDpUPcaZcgZU3uuVdzsGzymHp6HqMixVsLfUhNNigxYXsa2L5AEUrr8Diea8Ox8l0kESvhZWnULJw14oQpsGUF+PY0k7h+TF9AqwopV1VuvgFZBVDtFtn5H85K14SjpMQZ+QYkpEb/M5dJ31PFExJvRONrLC11Mf4VBUrv8lWE8srbQz5zUbqZJN/x1VHvg4j0bHxkzq8/9tV1LPD82H6DNiR/aHl4z0TVMdqn2gM0DZ8RUzSRyscKyGust8zYNVSGHl3260nspaMfBJmWIbnwfQhaWCd+FJPBNSx2i+amBL1CGLxrnCsbA1U5SGw8tfe79SuD5y3luR33NicWSdMpk+Alm+kbeOOmeSsYivNP7sViw9/fThWtgbM6MthxUmolpH7rl3VW0trsKR8QPh7mT6GHIkw4l8LGUjH6o7SyelnFAkejpet4SbHngkTHedrf+X5kSPHvI7+oxHfF9NnIJZ/w11VWFOiD1RafO1jze6AwYh3wsi7/NKu1YBMX/BO3AFT2jv8PcyAACMmvI+ArSYWaaJM8U1/gZbD4ViZDWh5CIy8zmcXZB1PFEw5Ud6AWHy82cmR6SN8AqcWl7HVxJoSBTRqeQnGh3cNx8tsIBndC1ZdnO7YzXDs2ZSGB9yAxeVdwmMzAwbtxvhUlaxfOVZ/yVstI0BFnJDFaoGZ93JYdWbT4QT0s/S7qTdiht/L9BlYdNBzYcTZ3FWFNaW0A8laxNHccLw0AsYX7Oonp2aWdWlH3SuwaOS54fGYAQVGSFTLj9A27RYDhjWYSieKX7vK4c8Px0sjYPnwrjDyxw1NTmQpWQXEpaPC4zADjE/wNfIb6SCaYeCwNhe9aLRpQDmHteL/M6qX+7r5a/S7dCuzLq2wtLyLt8ZnSwD2eXvifE49YbbA2dLbfH1wdoRvXTTZkO+E0iW0WAej1sCIPzstfgkdXeRlxC+g5aW+2qKRj03llrUzSrpdSltw3wY7/IZwvDQKFo28FFb+bKu1wGjys+oJVErl8N8yjAdGnJhWupxhAA2yahNLWghfXAEtvkhlal08uptbNvoC+tJPl+/pZuQLa0X/l8HI7yMp3wwjn3LL53e3vlEz2tSV5N8oTy4cL43irNgXRlw7o+XkdwHF9ziYktkqVE8ZWnBXlbroPvjaRepWGPnvFN9Dy97wvjWCq6hXwIjFvjuJkQ/2TH83n0tXvn9bVS8bAUYcBCPuolipqWOn1vnDGJ93UPjzDLMZ0PJDuUTw9rLIv+KXMerPzshPQpfeFN6nVqA23rDqZBjxWE+kBfkUEXGGq+zXkg8IJno3rHp8qh6YjzQXJ2X1YTEDhE9VMfL6Gc3uQRC9LFZthFXfpYDB8P7kha+NVY0OhpE/QaLyT4TNU7WCbdDDTUeEh9CHzyf+prt+q7mON9Mw0FGCanl94b/keYv8KUashlHajY09M7wv7SDdES1PUAcTN1HgXdHUEX4ejm48yXcmKE4JRvzQHfdOh1h8lK0lpmFcRb0YWv5qoIIu00npasr5Cu9HJ/C5Zlpe1VDcTzeUFm4DTHRseO7Ngri0J6w4g60lpmmQyH9AVT1a6CVGXkp3hs5DLF8T3odOAj38OjqPwi6j0+XX73D03J3Dc28W2uXjnTimadwPxv4KsfhZYV+SPETLJpqUEnmOO069OLwH3QB67s6w6uzMibDtFFlN1TLl0XE+G9M9fKoKxd70wrZ2FqUNIH9DW/nhtXcTGPF6GHllIcsfp+3Gr4Utb7P1E8O0DTc5tB20vGCz2JN+UbpVfWfeoQB5kcb9yHsLee9T3+MnG2lgwDBtAYlc0Hd96Lwjl0IC5KLweosEYlml5NbCOcN9Dp28xy0R+4bnzDAdgRoiOiMv76scunrA4A+K/cXHiiN2gJbnFvLep+EDp7o5k08Pz5thOgKsmPQ5XuHg7EX5F0regiRqW/BkniBRB8LIR4tpNYnHoaNDw3NmmI4AHUUw1CSzx5d0VPenWl5P0cfhNbYLH1Boxf6wpSMQy3FYWYVRn4URH4VVsc+f02UFU957pqBOlErbw8pTCvdhmErbEefPdN4M03aweN5fQ8uLej7gknaUYnGrs2MvCa8xTyg+B0k0F3H0aSr5AS3+5Lf+aXJZsSB1HtOfj1vg/wstn4SWqyhsAVp9JNzxQpUK+Y2sKdzuqC9ZIh9vplkmw+QKZdcX7qvdjOqFz4w4Mby2vCDLAUmkyIqAVQ/47X6ahHwpmW1MKjThkB+pVhKFqhn45OGJ0k50XEwcsRO0+NVWaxp1UxQHZqKL6ufKMB3FL0OMXF+4r3ajSou7PYpY/l14bXlAYQdI5I9gZdr8MWtdq9oSKZ2g5BUulm+n4/vt+SJOTPUJP5ZVDrpkOg50+QC/RdyrKSo+bkleionS9uG1tYKbnHy69xNZudpPHHlN3PTC09IzKd/tKqW3IZYLyNmc2/HzVLqhcCO1DQ/vD8O0FRx99HOg5TWFjEaeTWS5+M4f1EjR5fZVp0nOO7KterJtgZBUOTNRd3qnuZZ/KGToAMlPTtHxbDUxHYcaIRZyOTGb6hNT0nyH2a3ho+Kt/IK3INttRfrKB/J6ql9USIuJlEbSr8bieZyqwnQWH5RIlkEW30k3lTZSXIel5b3Da8oCZcYjjj7hrZdOhVBsy3leBNXDB3T0FbaamI4CLT7nv9i9NjGly7gbqXlAeE1ZgI6ORKIeb7ul1GtKraa/kE8svGcM0zZgomXQsni5W7OJvuRW/hzHtr6ljWr5bylyvK/LwbQi31Ul+r6zYzuG945h2kLNAdubE5NR51FLpfCamiHdgZNf68kNgE6JQgeoPngsRsP7xzBtAUZM9O7EJC+gCPbwmpoBSfQW39mkU36lXlXai+5Cd2RrHwKGaYjenphEyxYTjPy2d3j32vV3WnR/yN8Uy6PCe8gwuePrA/XuxHQxFpd3Ca+pUVx13h7Q8u7CxhEVTakj/PeuMlSIksVMHwMtPuUnpV6bmNKX5DZn5KvCa2oUWLkSVbWh5669W6pbTVwfnGk30NEpmXPAuikfxyQ3Ihl5S3hNjeCd3lp+x1cGCI/N2rrSriq3cZsmpq0UtpribJpKSYn+b3hNjVDrTnwp78Y1KZ/vN0KlZj7LVhPTFrBybpor14spKSQ/McmvZMmVQ0Ud6P1LHFDZvHwMmVrdrqoOzIDjKmoPGHl7T1pMJD8xqZsxUXpeeG2zAStKHCbQgtJieKe7sT250iWTLzDRu2Hk2p59OdMW10/BqHJ4bbPBE1OLIh+fUVTSOLckaobxwESf9su4Xt2V8rtE5O+Q3wivbTZ4YspB3hGuzuNedExuTLUR6uXSuqQ0AvxuV1V7hNe4LXhiykFpL7/1iMV7wvvLMJnAxMibYMQd/eD8xcQImq377bvE+OqRvX/9XVWaqnIFFh303PAeM0zTIBbWb5X3WvzSTEqL/d/rkrSWdiOgIv4eWt7XDxNzV+WX04qCLt/P4QNMS+Co0vOg5QV9FcNDnT20uLDRHbpaqZMrudRJDqK4Ji1uwJK5fxveZ4ZpGB/Dk6hHClvSNYt8wKXPn/toeL0z4dsyaXFOz/vYiiC692l/v4+7OXO4vTiTDRjxpb60FNKAyzXUBy685pmAlp/x96EflrPdVnrv70V86J7hfWaYWcFS+Zq+9q3QssLKOxCXDw6vPYQc4M7Ih/v2XnRatEMai9PY18Q0De1epUm7fbSMC+V7t6mrnBX7htc/HVdRz0YsruwrX1s3RZUutVwLIw4K7zXDbBWY8t4w4q6eTUFpRjQ5WXUTTGleeB+mAyM+nDZj6OOJupPyVpM8143N4aBLpjGgo9N7NmE3i3zvNvEgjDrOLRx6Vng/CEyUdoKRqwZisu6E/AaEfMJVovnhvWaYLYAR74CV9w+cP2XCxzgBRv4n9MibwvtCIBYxkjLYCZ6TKHQjpuqirdVjZ/ocn35ixNlu2YBujddrCFl5t9Pig7Cbd5alqGUY+WMOHchJlOCbqI2Io3F2hDNbBVpFsHJdX8UtZRFZi+QDSdTVFCowfecOZt7LUR25oi/DKLoh+hBQC/Tx4V03H40MU7eWtPwf9qFME+3Cpcm/q6HlRbBiknaSUImORaJWD9xyt13y1QfkP7HVxGwBTHQsjMTAW0uhaqV56wGWVGkAWjwALR719yv8eVbzShtGrA6XzsyAQ85HaPE7Xp7MIvJB0cTNk3e+qndV0fILbDUxU0Cr96M6sp5jdFhdU5q/eD/G53HQJTNnjouHd4OR13BUM6vrWkb1wcX33NDQduE4ZQYI3zPNRMf3Tb0lVm+LUlWsegK6seRqpk+BEa+HlXfx7hKrMCKryYjzKT8xHK/MgIBYfqIQSzi21lh1UdAlReDHpaPC8coMANSEEFo81NUdprR99xpo+WhXz4NVLKVlUa7EsaWdwnHL9DnQ0Te7Xvws9SncByN/QnFBXPCf5VULy4AWH+DwgQECcXQwdPRQIXxLPrJanQ0jvsxlRVhTSuuD34IlZa4PPgg4O7YjdPT9QviWSBRN7X0KchxafoeDPFlePqGaqg9EJ7LVNABQm2wkal2hlk1UckSLX6UxVeJMX92gm0tMVjGU5inehfHSW8NxzPQRqbUkzy2MtVQX+ROs3AAd/R9fa9yoq9PYKl7WDbwofCCOTuWuKn0MjDi6sHW8006tv8WKA3aALr1pKhq9iOfK6py831E+DB0dGo5npg9wk2M7wsrLaNm0xcMvgshqStQ6GKXpfFGV+8DK33NUOss7wmPxU05V6UOgo8RbH0W2QHztbXU1+Zr8OS+e92pYeZavP85xToMrHzog17uKHAvHNdPDQM/dGbG4sXC+pVBTnVqjf5w69/EFu8LIdBeRJ6fBlQ8fiC7lVJU+gloPoUpF9HvgxU47td6GWL6mfv7eaW/UF9PJqaBLUVZ7RVZTlZb6YoLDB/oAV1V7wMjbC28tTRd1z9Dy89OvAxOl7WHlP8HIdYUIDGV1Xn5ciOtcRb1i+thgehBo8ame63qSLtkehhX7b3E9VrwHRv7J+516wQJk5SpMjAJGfJytph4GSbQXrPhzz1kY3tfkC9T/yP1gbItOrT6lxsrfsFN8AEXBuEbcBT3yunBcMD0CjPxGz3Y9IV9TotZCy38Ir4twVrzEXx9NTL028bJaU1p94EtsNfUgqFJZE7m2p19aX2pVXkqTUHh9hKvs9wyY6DhY9SAHYw6Q0g2StVS6JxwTTIHxJXO1OKfnE2KpXtPSEUCLj4TXOB3o8qFI1FX+ennXbjCUVh84x41tudRnCgpseRRW9ba1VBd1z7DyfmfkfuF1TgfJyEuhxck+QblXl6+sxkVWk1VrEZdHw7HAFBAsGnkutDjPO4bDh9mrSju1noVSafvweqfj3JynuVi8F0au4l27ARCFD8TiZ9QXMRwLTMGAFsegOvJkX+1W+TrQciN0tCS83pmAKe2NRP2QrK2+sBpZM4vGxcTIeujSInaEFxhXUS+Gkb/qK2uprrQ2z00Yn797eN0z4ezQjhQlDCP+zL6nPlZaleL3WFJ6WTgGmIIAE+m0rMkMD7Af5E13+U2KAg+vfWtgPNoLRpyNpLyRfU99KBrrPnxA/iNbTQXEx/XE0aq+XrqkpVGewrhcGF7/tnBjY8+k6gqw6lYOK+hDkSNciz9hotSQNc10EKfFB2tFtbZ8cP2k1BF+i6vM2yO8B7NBBeicEV+HkfDWE09Q/SEa8zQ5xdEX2GoqELDDb4AWtw7MUsX7FaIfu4ULnxXei9nwycCJ/AdY+Qd/v/rZwhwk+fABeS/i8sHhM2e6BGLx2YGq9DjVd0x+KLwXjYLk8JdCy88hUQ9xaEGfqOaDdGN7PjN83kyHgVFvRVK+Y2CspboomdOqB2BKQ+E9aQZUyiVocaG3nAbtHvab6Bkm6mGMD8vwOTMdpFaj6BS3vMfKmuQlv6STV7XaFNFVxp6fhhaoVWloAVtPPavlPr/yLAoXCZ8z0yGgywdQMuPAvkj1rWIjvpvHQMR4aXeqlAkjn+BqmT0qaqBaVU8hlkexI7wLuMmh7aDFDwd++VEre4JYfJhSUsL71Cw+AdqoebDyZxSa0JfBqv0uv3MrfkuWcPh8mTYDK0owYgN/1Wly8v6mJ2HFMeF9ygpN/M7Iiq9aQC2vePeud0SpKokCdLSSraYOgiOoKaS4cOCtpelKa/Tc42L59vB+tYIz8lXQ0b/AytX+fg/qsrnXlFpNq5w57FXhM2XaRC2DfiNbS4HSGj03QI+8KbxnrUJlV2Dk6TDiMc696wHVyzNTKA1bTe3HLRx9AbT4Nfs+tiIajIm8yFUOz72TRurXiyKyVqf8T4MSO9aLIqvJytsp4j98lkzOQEsDqzZyQOA2VKtuiKXlXcL7lwdUFwq2tAhWXuInJ/Y/FVdpy6eTKF8yfI5MTvhoZSNuZt/SLCIrhgYkVRVYPrxreB/zwi2khgiKao6nycG0vGMLqliiDAGr1rQaiMtsAxjxPp6UGhRZlDQ5WXXm1poZ5AWS6LVIyp+Alvf558PPqFjaVB+craa8gS2/Glrew8uGJkSTE0WHW3kWFh/almXddGDLb4AR34JVqzlAs0Aiq8nIddByJHxmTIvAiBPTInDsW2pK9WVdG31OIa6i3kbNOmHlOk4QLoDqO3RGXIyJ0vPC58VkBKa8N3Uf5SVCRtUtJy3PhRWvDO9vO3ALh56FWIzCqDOhRVo9kyeo7omsponyU4jFCg4fyAno6PTcwgMoQLDuB6nLO237/KXZNDldShUZwnvcLnzXGjv8Hhj1O1i5gSeoGUTjj+4LLX9pnJPoz3kHtHrLWV7B9cFzAFoe4vuqtepbogdNmddGPEUF+ikqFlreBC3v9InAdPx+X3ZM+ZzUHyilJ7zX7cQ3R0jUEmh5mX8R6XmE5zdoqo05SpqGkbc4Iy/3Hw7qvkx/NvIW8g356hmtjn8SPX/KEKhEx7LV1AK+rEksvtZSWZPa1whGXQ0dnexb3Ri5n4tHd8N7570csdwHVrwLWkw6K37pH16/LxnTJpr3wUTLOt3JlXwcsOr9SNSVPoKcWkyF59fv8h8I3/XmAWhxhm85NkP3m1q1h2Nh5Ldh5JpcOkun/sYzcfTc54S/j2kQZ0f3pRiMzOZs2vJoDaw4AXbeq8PjhyCZ/yLq3Qarbuz7Lzp9OZPyemj5FeriG96LduNz8KxcCSuvH5jldF3pkvq/MS7eEd6XreGT1q28rOWPJiV8J+ohLJ37xvB3MA0CIz6a+SuRhuPfBSPeGR53NiiEH1Zd3feTEw3yFQto8v41kvmvDe9DJ3Dx8G5Iyst9zXaynrwPaoZz7QdN1c+SP8aiw5v+GPh7ZdXZLY3L+g5dJdK8nMuAd5oacW2mtXUat7G2lbgNVOU+MPKGvl1q0ASQViS4Dlouz9LYIE/SZYv8PBJ1u/8YZf0gFVk0IVh1iVs4vFt4/Y0CI14Pq65taXJKO6p80w0NbRcen5kF7/Q2Yl2mID3yoWhxQnjMZnFGzac6R5mXkkUU3c9l88mavM0Z+c/tTFnJgqvO2wNafM6nueTl9C2C/EdAPILx0rzwmpsFWi5Eoh7PPC7Tc7nOTY61XPV04HCx/Gdvdjbrd/DN/+Sd5NwOj9ksrqKeDSPOb+nrVBTRICbfhlFrkMhPYyL/0ih54paIfenjAivvniqz0uxYKIpqGyqUu5jH8gkrjtiBlt+Z/U21SdK9r72pSn0JjPhppgkhDQk4Ma/dJv91qpbRsy9FfVdSyyeRqFMQz/u78BqLjF+6GPVxGHF/z/qgvGtBbKDKGHlMTASsmIRV2cZl3dVRUQeGx2W2gY95If9SsxMTFWKfGNkIHR0ZHjMrsGJ/aHF3zy0p6qkoVj0FIy9AEqle9ikglq/pWR8U7YT5ZVy0V3hdWYEpzfNNI7Is59KJ8jHo8qHhcZltQBUYYeSfmjZVaQBo8SjiaG54zKxQlKwPeOulF8FHEacF42DKi11lv2eE19Wr9KQPKj3Hh93CoReE15MVmNGXQ4u/ZPLB1iamvMsw9z0wIxJG/KXpQZfWOb4N48NvDo+ZFZ/zpeW5uaXEtEtkIdWXbVZeDytWuIp6cXg9/UJP+aC831P8nnaaw+vICk1y0PLBpt8REk9M2YD13WEfavqmp76UPyAu7RkeMyupA1yeX+iJqZbzBy0egFWTFO8SXke/0hM+qDQs43YclV9mvzPyha1OTM0EeDLenyDelTaybPKmp0u5tUhyXMrpBTtTuYhCTkw+54yWbOpeahTgKvP2CM9/UCi0D6q2lIOeu3N43lmhXWen5cOtTExsMTWJM3Is08RE/bSqZeqnlZvzu7ZkuL1pf1c75aN3vWN7Paz4HpdN3UQhfVDpB/NxVNRh4flmhYKHaac1m/O75otNoq5E+/csSEaHMy3lSPVwgck5Tw+PmwUYcTQmRp4qhP/CZ4fXIrapU64Vo5ToHJ4zUzAfFH0wLTWgFCfkFi6gxUlIytjidzWiNNZvlZtsva38QAEzn7ZCs62f0+CxG2nXIjxus9TakJ/RUnWDPFSveJD6Kq6BKR+NxfP+OjxfZksK44OaGKUeb1dSKEx4js1CSdcw8qbMVnw6Mf2Ya4A3Cew7Xwktbsl042nQpbsg7w+P2yzkq4KRj2Yyl/NSfetfi1uhxQfy9FMMEl33QdHHhXw7cXR8q1aTtwRbCfqdoJpMYrLV8xg4KO6GKu01HWBZV/pFuAdx+eDw2I3iW0Xp6FJ6iFscvxOiydAvS9U9MNGn6cUKz5Fpnq76oGjndKJ8J+WBhufVKK4ix5CUsxdO9GEl3vnNO3JZgBbf8jc/81fBWxlXw47sHx57NiixlUpT+K9qp83+Wulfv52bqK8ijjJPrszW6ZoPijYtEvUH6OHh8JxmA0a9G4lqPvB4unxlAXljOzo1DwTe6WwEMi+jNiVO3oFYxM7OnkntK2b63Q7x29QXkfF3Z1F9QrJyHaw83xl5OPm4wnNk8qXjPihdTxWSDzojP4mjDtl1W3mdqZ9z5HXQ8nOw8pGWl6BkhY9Hn+jl9KSu4h181EAxq8laV7qDtQEmuhSJOo4K8dM2KUVF+4qVS8p/66zYtzYRng+jnvQDtJOTUprTBhj5GypsR9Hm4f1g2stmPqhawOoWzylP0bhON2rugBGn+vFHeZl16fIBGFdLYOQ3YOS99Z/f4jjNKN08+QuHl7QAfUUQi5Nb/kKQ/DZ7vfY3ZXkLakDwc2hxIbS8wceDTIymP5PVQsui2hcaiboKWizlOszdJ/VByS/Aqvu8D6qd46E+LmdTXstMspao3veKI3YIr5tpAirL4Kx8ONfB4XdHau1yalvwuTz0RjU9p83Iu2Dlh6j+dXjtTHfxhQrJx2fEo36c+MlhhueZl+q1xzbTDD+XVX7loNZARyq8VqZJvNVkxKldjyPKS3WrTctHvc9AD78uvGamOKT+nfIBsPI0ipSe+pCFz7Xo8v5WaoAQfWtb/iymCZCoA2Hk/W1f87dTNDDScraPwIjv0mDnGJLewU9QRhwEq86ALd/v8ybztOLbLV9qWt6TZz0oxu+cyONbCijrlmo5bT5uRIvzEJcWhNfG9Baw6jAY+Z+Up9gTDVJrrgvoUm7VM5kavsSDr73d4d2yrKo7NX3lQnURTHQs77T1D25yz2f6PEUrz/LPu9O7uM2ILHUtv4MjDmCHdztI403k9ZmjwTulTTltt1CxNk4h6V98V2GtjoRRl8KqjR2PfduWyFqnXTirLsQxh70oPHcmR6CjyPubijg5+Zw2H9X7R1j1b5hY8LLw/Jn+hArAIVHJVB/CPEJcWpWflOSVMKW9w/Nl2oCfnKrlewrx8En0hUy/TNSH/quIR3Krnsn0Fojl30CXP4ZE3Vr3LW4xXjqh5dSmS1yNeN4+4TkybQRxSSChyYmcjzM8mE7Ib8H63Q7Aqu/CKI6mZTy+xbwRX4WRnV3e0e9Ju/1eDD33jeF5MR2A6hVTxHTHY0vqE1KiqE/YJYiloLrg4fkxg42rVJ4BIySMungqgjscS3kqDdjd6EMalpTYjdBN6AE4I76OpPwk7T603XqqO7a1vIraInEKCTMbvpuJlSspDaot8U804flUE3knYllFiSuaFgKKzaj1cr9oqgBY3hNU/eFbdbOPqVq+YNfwPBhmW6ASvcUH11r5VC45ePTvfdCueghanuaWyP3C38kUABxb2glJeQJW/rqe+pHGEtXyjsIHuzX5gLRaPl09hYS2/nX0MSQcOctkxxdAjOUC2PJpvnR0fYxOH6de9dy5aflz9Pf1n/XlccRDsOLkPBscMG0Ei8u7+JpKVC6CwvCNXOcfqremRjcl74aiv6tHaRu1HlqugRFnw4jFGC/tHv4ehskK1dqGLb8BVr0fWv4P1YKClU/QRspUcG5d1MhAk++I/l48ACN+4ZeGSbQX5731IP7rRJOULY9Cy89QiRNn1eXQZP2IVZtL3gKjroKRF0GLf/PF/sdLu3MHEqbd+IaqEwtehkQOw4gJXzxOi9NgxNego9NhxadgZdX/fTLyUt5o6UOcm/M0KjHimwVOF/2/yYWcMsIwDMMwDMMwDMMwDMMwDMMwDMMwDMMwDMMwDMMwDMMwDMMwDMMwDMMwDMMwDMMwDMMwDMMwDMMwDMMwDMMwDMMwDMMwDMMwDMMwDMMwDMMwDMMwDMMwDMMwDMMwDMMwDMMwDMMwDMMwDMMwDMMwDMMwDMMwDMMUkP8PFwfDpSskNVQAAAAASUVORK5CYII=;" vertex="1" parent="1">
          <mxGeometry x="780" y="1090" width="53.41" height="51.22" as="geometry" />
        </mxCell>
        <mxCell id="SERmCTiBr_25booTLpWR-18" value="S3: Source Data" style="outlineConnect=0;dashed=0;verticalLabelPosition=bottom;verticalAlign=top;align=center;html=1;shape=mxgraph.aws3.s3;fillColor=#E05243;gradientColor=none;" vertex="1" parent="1">
          <mxGeometry x="159.25" y="1270" width="50" height="61.5" as="geometry" />
        </mxCell>
        <mxCell id="SERmCTiBr_25booTLpWR-20" value="" style="shape=image;verticalLabelPosition=bottom;labelBackgroundColor=default;verticalAlign=top;aspect=fixed;imageAspect=0;image=https://res.cloudinary.com/hevo/image/upload/v1720157132/snowpipe%20logo.png;" vertex="1" parent="1">
          <mxGeometry x="318.90999999999997" y="1190" width="74.5" height="48.16" as="geometry" />
        </mxCell>
        <mxCell id="SERmCTiBr_25booTLpWR-22" style="edgeStyle=orthogonalEdgeStyle;rounded=0;orthogonalLoop=1;jettySize=auto;html=1;targetPerimeterSpacing=5;sourcePerimeterSpacing=5;strokeWidth=4;strokeColor=#99CCFF;entryX=0;entryY=0.25;entryDx=0;entryDy=0;" edge="1" parent="1" source="SERmCTiBr_25booTLpWR-23" target="SERmCTiBr_25booTLpWR-11">
          <mxGeometry relative="1" as="geometry">
            <mxPoint x="297.25" y="1140.22" as="sourcePoint" />
            <mxPoint x="417.25" y="1140.22" as="targetPoint" />
          </mxGeometry>
        </mxCell>
        <mxCell id="SERmCTiBr_25booTLpWR-23" value="Dim Tables" style="shape=image;verticalLabelPosition=bottom;labelBackgroundColor=default;verticalAlign=top;aspect=fixed;imageAspect=0;image=https://cdn0.iconfinder.com/data/icons/flat-design-database-set-6/24/tables-512.png;" vertex="1" parent="1">
          <mxGeometry x="184.5" y="1107" width="42" height="42" as="geometry" />
        </mxCell>
        <mxCell id="SERmCTiBr_25booTLpWR-24" value="Fact Table" style="shape=image;verticalLabelPosition=bottom;labelBackgroundColor=default;verticalAlign=top;aspect=fixed;imageAspect=0;image=https://cdn0.iconfinder.com/data/icons/flat-design-database-set-6/24/tables-512.png;" vertex="1" parent="1">
          <mxGeometry x="184.5" y="1193.08" width="42" height="42" as="geometry" />
        </mxCell>
        <mxCell id="SERmCTiBr_25booTLpWR-26" style="edgeStyle=orthogonalEdgeStyle;rounded=0;orthogonalLoop=1;jettySize=auto;html=1;targetPerimeterSpacing=5;sourcePerimeterSpacing=5;strokeWidth=4;strokeColor=#99CCFF;entryX=0;entryY=0.5;entryDx=0;entryDy=0;" edge="1" parent="1" source="SERmCTiBr_25booTLpWR-24" target="SERmCTiBr_25booTLpWR-20">
          <mxGeometry relative="1" as="geometry">
            <mxPoint x="220" y="1427" as="sourcePoint" />
            <mxPoint x="317" y="1400" as="targetPoint" />
          </mxGeometry>
        </mxCell>
        <mxCell id="SERmCTiBr_25booTLpWR-21" value="" style="shape=image;verticalLabelPosition=bottom;labelBackgroundColor=default;verticalAlign=top;aspect=fixed;imageAspect=0;image=data:image/png,iVBORw0KGgoAAAANSUhEUgAAASYAAAEaCAYAAAC8fPoMAAAAAXNSR0IArs4c6QAAAARnQU1BAACxjwv8YQUAAAAJcEhZcwAADsMAAA7DAcdvqGQAADCrSURBVHhe7Z0JmFxVmfejgyKK2yggjgsjLoiyKDpsMq1A0nXPOdWd+NE6snyRJF33nHOrsxAdRR17Zj7FXWbUEVEWcV9GEGTRYRwFZURkk0WWsAgKhFUCYQlJ/ud73nOrOp2TTrrq1q2qW1Xv73n+D3lI5/Zdzj33Pe95lzlzGIZhGIZhGIZhGIZhGIZhGIZhGIZhGIZhGIZhGIZhGIZhGIZhGIZhGIZhGIZhGIZhGIZhGIZhGIZhGIZhGIZhGIZhGIZhGIZhGIZhGIZhGIZhGIZhGIZhGIZhGIZhGIZhGIbJFWfkC52Rr3Lx6G5TMvJVSEZeGv4s0ye4sbG/woojdnDLRl9QGwCbRP/PDu3oJoe2C/8dw7QDV1HPxni0F4zS0OJkGPFzJPI6aHELtFi1SfIWGHkjjPwdrPwRtJhEVR6CidLzwmMyPQL03J1RGXkLjLAw4lQYeRG0eABGPriZtHwAWl4FLb8JI96H8dIQYvk34fEYphVcpfIM6JE3waoViOUlMOIRWLHBJWXnlo44t3TUuYmRmbWs9ndGOlj5GLS41Rn5SejyATjigB3C38UUEGfkfjDqfc7KX8KIdf6BVsuNqf7w6Qtl1L+6WL49PD7DNIObnHw6YrkASflUGPHY1HikCcmqVEY2JvpZ+ne1sQotn4AR33Lj8vDw9zIFAYk3jb8IK293y+enk0wzD336w6d/u3y+g1EPQEenw5SGwt/HMLPhEvl2GPltWPWUH5NJhvG4LdFYXTbqYNWDMOJLrnL4K8JzYLoEjpn/Ihj5CdjyHVMTUvgAs6qamtFI1L3Q4iTE8jXh72eYECTzXwsr/wNW3eeXaHlPSKHIglo66mDE1aiUyuH5MB0GOjoURl08tRYPH1he8ua3N53vQSI+4OLh3cJzYRhY8Uok8ngYec/Uki0cS+0SWU9LRxyseAxGHefmzHlaeH5MB4ARE0jK92desjWr+vqe1vZWXg8rq0jmvyg8L2bwoHEAHSWw6lrvyK77j8Ix1AlVyzQ+1yEWK3hy6iC07Q8tP4ZqOXVshw+mE6LfS+a5d7CXF7vKfs8Iz5MZDJCoI2HLv/DjoVvjMZSfnNST0KXlPDl1ALdw6Fkw8vMdN5Nn0ibH41Mw8gLoSHEs1GDg4+KsOgxGnAcrH3fL5nfPQtqayPVgxTqMlxby5NRmEEefTrdaCzQINi3vnoBR34IuHRCeN9M/IFFvRqJOgZFrp5Zt4ZgoirzPSd3mlszbL7wOJieg1RLY8pOFHQg0WdJAMPJxGHUiBdOF18D0Lq6q9oAWJ8DKu9MJqUAfx22Jwl60PNdVDn9+eE1Mi8CIg2BE6ugOb3zRRBNnusS7zUfnLh/eNbwepndIHdvyQ0jUdT4cpdsuhGZlaz5RLT7IS7ocwURpJ1j5cx+WH970IqsWwgAjbqBIdBzF+U29hPdnVsViZ9Tl9TihLZ5xr4ic4Ubcj3Gxf3idTEYof80PiqI5FxtRLYocVgFG/gZGHM0mdbHBRGl7xFLAigth1fqOhaO0U2Q1eTeDOBOl0vbhNTNNgiURRdDe7iZyNp/pQdXzlPyfZ/iZPFVPc0kUTVJnQ8uR8FqZ7kO5kUjUGf6Z1UNCwmfZDtH4qFtltMM3pVrybh4To7ea5FpYMRpeN9MEzs15GqWa5LaEo0EWJu3OpDwGwdY0FWIgKcTgG7Di78PrZjoP4pE9YeSXYNUD3o/UzjEwXfUJKfGTxi0w4rvQ8nMUEgMtPw8jvwYrL/M/m8dEmTrCT2dfUwtg+YJdYeS9LTsb68spo9ZDi98jFp91VrwXWh4CK/ZHtXworIp9XRwqJ1EfLOFx8hQNMJ+DV74XVp2M8dLu4fUz7cdV1Ith5b8gUX9MY+M6uLky4SejjTDipzBC0higOk2bnd/k0HZUKA56+BBYSSEKj7c0Nv17IG9HLPeZ/nuYJkAsrF9itfKVoB2yNLzgctiRo7Bo5Llb+1r4oLnFh+4CLT4Co/7cEb9WLVAURq52Rn0Si8Qrw/Ni8sfX6tLSwIibpyK2272cn650U+R+xLLqxoZ2DM9vJtzQ0HawogQjr/HhCuExG5H3NY06VCK9tfeA2QZ+GafFhS2FB5B5nJQBE30FxxzWVE4b7Mj+0OK//Re03QOWjk9fwfRrdh20ej/GOcSgHfiX26h3I1EXpUv3nPw3zYg+RIm6O2sVAExQsTl5TWa/6zIq5yNPZyd4Btxy+Spo+cfMW7S15Ri0OM1NDj0rPH4jpCZ0dFXmAZBFNBHT7kmiLkEsx0PTnskOtByGlj+GketSa3iG+99uWUXPdiO0WNqKxYJk+M3eys7y4fZ5dOL3bJ1nwMXivTDyyczLuHRSuoxioMJjN4PfpTFqbebzyKo0QJN8YhfCSuHGxp4ZnhvTGDDlvX2qkFUPtqVYWzPy1oo4n2KkwvNsFhj1Ydgymrb4aHLUcj2q7GdqGr8bl/WrVlsaQatjwuM2i5ucQ2VRv5bbzmAzmsrBU1Q+9UxU1IGcJNw4vsOIVZ+ClvfVfXlb3ONOikJFjFwHEx3birVUx18fZUM0m6JVX01Uo0PDYzLbwO9EaPkd/3ULb2ojoqxqo67Nq+0NjJoHS1ZTkwMgL9WcszC+CP3J0CXOwdsG5J/zfjojV6Vb7BQCMsN97bTI6azFqrzK3/r3xIqzmp5w6x9udoA3B46e+xxo+bPMVkrq3Pt32mULj50FTJReRsvCzP6uvOS7afgl3q3Q8jMw814enusg41siWTlO/jm/a5XF/9JOpRPTr/KcDHxXnyot52b4fVtTfbOlIit5nkvfQ9uniMVPM09MKxY4qiYYHjcrvsuFkd/PbMHlrbqDXMubYOQ/usrQi8NzHiSoSB/54WgX1aeQZB037VR9+WSib+Q5GcCUj+aJqUP43TAj/jezheItpujY8LitACO/QhPeFr+rW6qnuJAj08rL/ADVc3cOz7ufoZcKRr0VifwO+eGmlm3hvSqC6HlR+IqOTs5zMvBBwn5iasIBzhNTNiga12nxy0wTUz3KW4uWHd/TgZUnFWpiqst/iWuOXSt/6Yya7yb37PsdPPKzQcsvTPVp6+ZOWyOampjEaXlOBs7IsawWEyqKfUzN4H0FWl6Q2SQ/zk8glfC4rUA5S4WcmOryEb1+B289tPwRlX0Nr6EfSCPz1SQSdasfH0W1kGZSWkTwv/KcDGDFCj8xhb9rW6pPTLF4T57n0vf4icnI8zNPTL5RpfhoeNysUAtmxPInmc+nk6rn4Nny/c6Ir/dLThSlEiFRCbS4Id0EKJhjuxF5v6C4odkshG0BI77a/MQ0FS5wcHg8ZhukvgP5Fbc8o4WSLgF/kFdPd+i5b0Qsbi3cLs+2NJXiIu6HLX8ME72ZJIyJ0vNgyu+EUb+FVRv9hNSMP6VIoqWcVWsRD78nvM4s1Cprrmo6XCANPr6VE8czACM+XPObbHljZ5OveSRXww6/ITxuFmCj8fRceuyFoHu3qczvzdByZS816kQczYWVZ/lr6UZOWzvky46I7+WRp+b7Glq5oen74n2w8gJ35NteGB6TmQUqpAYjHmn6a1BXajZ/Ljxus7jK2PN97EkWR3yRVGt1TmViKau+yDl4vgsJJZlatcafc7MvXpFFH82kvIb8O+F1NwOS6LUw8oZMeZw+nEac4Mbm5BLnN1AgOYzM1D9knhDS8P9HKb4lPHYzQKuPIFHNreGLKu8g90XqNsJEF8GWR6mMbHjN3SINE1GfRaL+5CekrB+loiu1WFZl7aLjrHgJrPpJGi4yw/G3JT8xyg0ww+9kx3dG6KvZ0uBM88yucUZm6qkFK5b6ROJWzqGImmozpZ6EkT/x9a0XjTw3vP5OQctLJOXlqb+kgBHb7VCaYnQNpTuF92NbuIraA1admblWGC3rtbwEi8u7hMdmGgRxeS602NhSjAoNgETdilgsbnRd73OtjPyEL4/Rb5PSdNVz8LSgKopnIhbvwrGtVWNoBpjSW2Hk8bDyej8Z9aIfrxX5D6d8hFwOFCjpJrdeQQK2/AZYuRK2fHO6ATDD8WYTBeNWy1RyZZKtpRZIwwbEb1v+gqamMz2Qc6Dlopl2I/xOYFXu46z4IKy8JA3a6+NJabpoMqiFQlABNWh1AuLywe0otUL5fTCRhhHfgpF3pH3aWny+vax6/qOR98LKc2DEiTDRMmhJFuRyZ+Q/+5It3p/UojU54a2lP8HOe3X4XJgmgVZHegdfli/EdPn4Hp/cS00AbknTOMQPEYtTfc0jI6+AlnfW44C2+PeDID9Bza8vM1bDyCuhxUmw8ihY8Upnx3akyaqRr63PfF9xxA7OvO2Fvq46fe0p8NPIm7wVTBNSKy9Zv4msRbon9XzM+nine0SBva3eq6nIc/lPjTw/ZhZ8sXgjfpHbZFGv71xvi0MDgkxjWrPXcs+2+DeDpnouFd2TtHvHU87Ih2HEtdDiTP9Vj8UKb33GcnyTyothRYxE/j9odQa0+AWM+LNvGWQk/P3tpdba3RKNwekK/z6L0sYH12PlYOVTthXqg4VquT1VJFu1xPpd/kvbYNurrcnXQ2rDs2M1pnoKihbHsLWUI2l9JnFOYcqOsNLBvjWFP8vqrmh1oOUv3Rh3gM4dGPEOWPlgy2ttFmuQ5DsFqSecieaH7xSTEy4WX+eJicVqQhS3FIuzndqvsJH+PQ+WRK+FFqu93yJ8ACwWa3OlMWqPuHj47eG7xOQMtPhUT5a8YLE6KdpsoIkpFt9mh3cHSFvyyOt5cmKxtqG07fy9iEt7hu8Q0yZQiY7D0pHm6hyzWIOktCPLp9ha6iA+ly0Wv8kt6JLF6if5vorydsTyNeG7w7QZaLUEiVrXlqBLFqtXRasIby3JlWwtdQGsPJqCLn/B4QMs1jSlq4jLsaT0svCdYToEqkLCiA1sNbFY9ZriciPiaJytpS7iM9i1OJN36FisqbilX7uFoy8I3xWmwyCWfwcj17gqW02sAZavAiE2YHx4JHxHmC7gxsb+CkZ8zdcRCh8WizUoSq2lH7qhoe3Cd4TpEjDlvWHkH3lJxxpIpTWzHkNFHRi+G0yXQRx9GhMcdMkaQKXBlCe7hUPPCt8LpsvQ9ii0uInDB1gDpXQJdyfG1ZvDd4IpCNDiA1wtcXBEDSb8nwc1XKTeJ1BHn+HwgAKDiSN2go6uYqtpMORriWuxClre5+uTD1o5HN80QtzgKuoV4bvAFAzo6EhYxb6mflethC+S8g3Q0bkw8tu+HRTtzg6CBVXvehJHx7O11ANQyyAYcT6HDwyI0oamD0GLryIW74FVJzojHvZWcz8v69OyJr+DXsBdT3oF6EjBqicGpmHloGtTy3NqF/UOt0TsCytO9hMUjYF+W9pPdT2JjmRrqYfwQZdafI/LogyQ6ln1Rqx2Rlawcu5zXDy8G4z8PJLyHT7GrV8mKKrjbcRPqZloOPaZgoPK8IHUpLFvBiOrMdV62cGoL+Oo0vP8WEiivVCRp8CqB3reB5Uoh2r5Me560sPAiC9T0ay+9TOwZlat2zJi+ZPpxdJcLN8Oo74KIx5NfVA9Ni6mwgPED93Y0I6bj3amZ8BEaXcYed/AbSOz0o/RsvlUBuQyZ+fuWx8TviLFuNgfRv4nrHqypyYoHx4gH4QpDW0+0pmeA0Z8nJdzA6pNk9PvEEcHbzYuJkrbw6gytPwfWLnBx0GF/75ooompIs5gh3cfgOTwl0JLTlUZZNHyx6q7EYvRLcbHyrnPgYm0s+py7yAvqnXtd+HkPdRbMbwGpkeBFkv9gGNf0+AqXQathpYz1ivyO3hanAArH/AfsaKNFQqH4K4n/QWOOexF0OJ/OXxgwOUtJ3knxrfuo0ESvQVW/QhWbUgnqBmO02nRpGTl9Rgv7R6eL9PjuFi8F0Zu5KDLAZefnMpXIJb7hGOkDpUPcaZcgZU3uuVdzsGzymHp6HqMixVsLfUhNNigxYXsa2L5AEUrr8Diea8Ox8l0kESvhZWnULJw14oQpsGUF+PY0k7h+TF9AqwopV1VuvgFZBVDtFtn5H85K14SjpMQZ+QYkpEb/M5dJ31PFExJvRONrLC11Mf4VBUrv8lWE8srbQz5zUbqZJN/x1VHvg4j0bHxkzq8/9tV1LPD82H6DNiR/aHl4z0TVMdqn2gM0DZ8RUzSRyscKyGust8zYNVSGHl3260nspaMfBJmWIbnwfQhaWCd+FJPBNSx2i+amBL1CGLxrnCsbA1U5SGw8tfe79SuD5y3luR33NicWSdMpk+Alm+kbeOOmeSsYivNP7sViw9/fThWtgbM6MthxUmolpH7rl3VW0trsKR8QPh7mT6GHIkw4l8LGUjH6o7SyelnFAkejpet4SbHngkTHedrf+X5kSPHvI7+oxHfF9NnIJZ/w11VWFOiD1RafO1jze6AwYh3wsi7/NKu1YBMX/BO3AFT2jv8PcyAACMmvI+ArSYWaaJM8U1/gZbD4ViZDWh5CIy8zmcXZB1PFEw5Ud6AWHy82cmR6SN8AqcWl7HVxJoSBTRqeQnGh3cNx8tsIBndC1ZdnO7YzXDs2ZSGB9yAxeVdwmMzAwbtxvhUlaxfOVZ/yVstI0BFnJDFaoGZ93JYdWbT4QT0s/S7qTdiht/L9BlYdNBzYcTZ3FWFNaW0A8laxNHccLw0AsYX7Oonp2aWdWlH3SuwaOS54fGYAQVGSFTLj9A27RYDhjWYSieKX7vK4c8Px0sjYPnwrjDyxw1NTmQpWQXEpaPC4zADjE/wNfIb6SCaYeCwNhe9aLRpQDmHteL/M6qX+7r5a/S7dCuzLq2wtLyLt8ZnSwD2eXvifE49YbbA2dLbfH1wdoRvXTTZkO+E0iW0WAej1sCIPzstfgkdXeRlxC+g5aW+2qKRj03llrUzSrpdSltw3wY7/IZwvDQKFo28FFb+bKu1wGjys+oJVErl8N8yjAdGnJhWupxhAA2yahNLWghfXAEtvkhlal08uptbNvoC+tJPl+/pZuQLa0X/l8HI7yMp3wwjn3LL53e3vlEz2tSV5N8oTy4cL43irNgXRlw7o+XkdwHF9ziYktkqVE8ZWnBXlbroPvjaRepWGPnvFN9Dy97wvjWCq6hXwIjFvjuJkQ/2TH83n0tXvn9bVS8bAUYcBCPuolipqWOn1vnDGJ93UPjzDLMZ0PJDuUTw9rLIv+KXMerPzshPQpfeFN6nVqA23rDqZBjxWE+kBfkUEXGGq+zXkg8IJno3rHp8qh6YjzQXJ2X1YTEDhE9VMfL6Gc3uQRC9LFZthFXfpYDB8P7kha+NVY0OhpE/QaLyT4TNU7WCbdDDTUeEh9CHzyf+prt+q7mON9Mw0FGCanl94b/keYv8KUashlHajY09M7wv7SDdES1PUAcTN1HgXdHUEX4ejm48yXcmKE4JRvzQHfdOh1h8lK0lpmFcRb0YWv5qoIIu00npasr5Cu9HJ/C5Zlpe1VDcTzeUFm4DTHRseO7Ngri0J6w4g60lpmmQyH9AVT1a6CVGXkp3hs5DLF8T3odOAj38OjqPwi6j0+XX73D03J3Dc28W2uXjnTimadwPxv4KsfhZYV+SPETLJpqUEnmOO069OLwH3QB67s6w6uzMibDtFFlN1TLl0XE+G9M9fKoKxd70wrZ2FqUNIH9DW/nhtXcTGPF6GHllIcsfp+3Gr4Utb7P1E8O0DTc5tB20vGCz2JN+UbpVfWfeoQB5kcb9yHsLee9T3+MnG2lgwDBtAYlc0Hd96Lwjl0IC5KLweosEYlml5NbCOcN9Dp28xy0R+4bnzDAdgRoiOiMv76scunrA4A+K/cXHiiN2gJbnFvLep+EDp7o5k08Pz5thOgKsmPQ5XuHg7EX5F0regiRqW/BkniBRB8LIR4tpNYnHoaNDw3NmmI4AHUUw1CSzx5d0VPenWl5P0cfhNbYLH1Boxf6wpSMQy3FYWYVRn4URH4VVsc+f02UFU957pqBOlErbw8pTCvdhmErbEefPdN4M03aweN5fQ8uLej7gknaUYnGrs2MvCa8xTyg+B0k0F3H0aSr5AS3+5Lf+aXJZsSB1HtOfj1vg/wstn4SWqyhsAVp9JNzxQpUK+Y2sKdzuqC9ZIh9vplkmw+QKZdcX7qvdjOqFz4w4Mby2vCDLAUmkyIqAVQ/47X6ahHwpmW1MKjThkB+pVhKFqhn45OGJ0k50XEwcsRO0+NVWaxp1UxQHZqKL6ufKMB3FL0OMXF+4r3ajSou7PYpY/l14bXlAYQdI5I9gZdr8MWtdq9oSKZ2g5BUulm+n4/vt+SJOTPUJP5ZVDrpkOg50+QC/RdyrKSo+bkleionS9uG1tYKbnHy69xNZudpPHHlN3PTC09IzKd/tKqW3IZYLyNmc2/HzVLqhcCO1DQ/vD8O0FRx99HOg5TWFjEaeTWS5+M4f1EjR5fZVp0nOO7KterJtgZBUOTNRd3qnuZZ/KGToAMlPTtHxbDUxHYcaIRZyOTGb6hNT0nyH2a3ho+Kt/IK3INttRfrKB/J6ql9USIuJlEbSr8bieZyqwnQWH5RIlkEW30k3lTZSXIel5b3Da8oCZcYjjj7hrZdOhVBsy3leBNXDB3T0FbaamI4CLT7nv9i9NjGly7gbqXlAeE1ZgI6ORKIeb7ul1GtKraa/kE8svGcM0zZgomXQsni5W7OJvuRW/hzHtr6ljWr5bylyvK/LwbQi31Ul+r6zYzuG945h2kLNAdubE5NR51FLpfCamiHdgZNf68kNgE6JQgeoPngsRsP7xzBtAUZM9O7EJC+gCPbwmpoBSfQW39mkU36lXlXai+5Cd2RrHwKGaYjenphEyxYTjPy2d3j32vV3WnR/yN8Uy6PCe8gwuePrA/XuxHQxFpd3Ca+pUVx13h7Q8u7CxhEVTakj/PeuMlSIksVMHwMtPuUnpV6bmNKX5DZn5KvCa2oUWLkSVbWh5669W6pbTVwfnGk30NEpmXPAuikfxyQ3Ihl5S3hNjeCd3lp+x1cGCI/N2rrSriq3cZsmpq0UtpribJpKSYn+b3hNjVDrTnwp78Y1KZ/vN0KlZj7LVhPTFrBybpor14spKSQ/McmvZMmVQ0Ud6P1LHFDZvHwMmVrdrqoOzIDjKmoPGHl7T1pMJD8xqZsxUXpeeG2zAStKHCbQgtJieKe7sT250iWTLzDRu2Hk2p59OdMW10/BqHJ4bbPBE1OLIh+fUVTSOLckaobxwESf9su4Xt2V8rtE5O+Q3wivbTZ4YspB3hGuzuNedExuTLUR6uXSuqQ0AvxuV1V7hNe4LXhiykFpL7/1iMV7wvvLMJnAxMibYMQd/eD8xcQImq377bvE+OqRvX/9XVWaqnIFFh303PAeM0zTIBbWb5X3WvzSTEqL/d/rkrSWdiOgIv4eWt7XDxNzV+WX04qCLt/P4QNMS+Co0vOg5QV9FcNDnT20uLDRHbpaqZMrudRJDqK4Ji1uwJK5fxveZ4ZpGB/Dk6hHClvSNYt8wKXPn/toeL0z4dsyaXFOz/vYiiC692l/v4+7OXO4vTiTDRjxpb60FNKAyzXUBy685pmAlp/x96EflrPdVnrv70V86J7hfWaYWcFS+Zq+9q3QssLKOxCXDw6vPYQc4M7Ih/v2XnRatEMai9PY18Q0De1epUm7fbSMC+V7t6mrnBX7htc/HVdRz0YsruwrX1s3RZUutVwLIw4K7zXDbBWY8t4w4q6eTUFpRjQ5WXUTTGleeB+mAyM+nDZj6OOJupPyVpM8143N4aBLpjGgo9N7NmE3i3zvNvEgjDrOLRx6Vng/CEyUdoKRqwZisu6E/AaEfMJVovnhvWaYLYAR74CV9w+cP2XCxzgBRv4n9MibwvtCIBYxkjLYCZ6TKHQjpuqirdVjZ/ocn35ixNlu2YBujddrCFl5t9Pig7Cbd5alqGUY+WMOHchJlOCbqI2Io3F2hDNbBVpFsHJdX8UtZRFZi+QDSdTVFCowfecOZt7LUR25oi/DKLoh+hBQC/Tx4V03H40MU7eWtPwf9qFME+3Cpcm/q6HlRbBiknaSUImORaJWD9xyt13y1QfkP7HVxGwBTHQsjMTAW0uhaqV56wGWVGkAWjwALR719yv8eVbzShtGrA6XzsyAQ85HaPE7Xp7MIvJB0cTNk3e+qndV0fILbDUxU0Cr96M6sp5jdFhdU5q/eD/G53HQJTNnjouHd4OR13BUM6vrWkb1wcX33NDQduE4ZQYI3zPNRMf3Tb0lVm+LUlWsegK6seRqpk+BEa+HlXfx7hKrMCKryYjzKT8xHK/MgIBYfqIQSzi21lh1UdAlReDHpaPC8coMANSEEFo81NUdprR99xpo+WhXz4NVLKVlUa7EsaWdwnHL9DnQ0Te7Xvws9SncByN/QnFBXPCf5VULy4AWH+DwgQECcXQwdPRQIXxLPrJanQ0jvsxlRVhTSuuD34IlZa4PPgg4O7YjdPT9QviWSBRN7X0KchxafoeDPFlePqGaqg9EJ7LVNABQm2wkal2hlk1UckSLX6UxVeJMX92gm0tMVjGU5inehfHSW8NxzPQRqbUkzy2MtVQX+ROs3AAd/R9fa9yoq9PYKl7WDbwofCCOTuWuKn0MjDi6sHW8006tv8WKA3aALr1pKhq9iOfK6py831E+DB0dGo5npg9wk2M7wsrLaNm0xcMvgshqStQ6GKXpfFGV+8DK33NUOss7wmPxU05V6UOgo8RbH0W2QHztbXU1+Zr8OS+e92pYeZavP85xToMrHzog17uKHAvHNdPDQM/dGbG4sXC+pVBTnVqjf5w69/EFu8LIdBeRJ6fBlQ8fiC7lVJU+gloPoUpF9HvgxU47td6GWL6mfv7eaW/UF9PJqaBLUVZ7RVZTlZb6YoLDB/oAV1V7wMjbC28tTRd1z9Dy89OvAxOl7WHlP8HIdYUIDGV1Xn5ciOtcRb1i+thgehBo8ame63qSLtkehhX7b3E9VrwHRv7J+516wQJk5SpMjAJGfJytph4GSbQXrPhzz1kY3tfkC9T/yP1gbItOrT6lxsrfsFN8AEXBuEbcBT3yunBcMD0CjPxGz3Y9IV9TotZCy38Ir4twVrzEXx9NTL028bJaU1p94EtsNfUgqFJZE7m2p19aX2pVXkqTUHh9hKvs9wyY6DhY9SAHYw6Q0g2StVS6JxwTTIHxJXO1OKfnE2KpXtPSEUCLj4TXOB3o8qFI1FX+ennXbjCUVh84x41tudRnCgpseRRW9ba1VBd1z7DyfmfkfuF1TgfJyEuhxck+QblXl6+sxkVWk1VrEZdHw7HAFBAsGnkutDjPO4bDh9mrSju1noVSafvweqfj3JynuVi8F0au4l27ARCFD8TiZ9QXMRwLTMGAFsegOvJkX+1W+TrQciN0tCS83pmAKe2NRP2QrK2+sBpZM4vGxcTIeujSInaEFxhXUS+Gkb/qK2uprrQ2z00Yn797eN0z4ezQjhQlDCP+zL6nPlZaleL3WFJ6WTgGmIIAE+m0rMkMD7Af5E13+U2KAg+vfWtgPNoLRpyNpLyRfU99KBrrPnxA/iNbTQXEx/XE0aq+XrqkpVGewrhcGF7/tnBjY8+k6gqw6lYOK+hDkSNciz9hotSQNc10EKfFB2tFtbZ8cP2k1BF+i6vM2yO8B7NBBeicEV+HkfDWE09Q/SEa8zQ5xdEX2GoqELDDb4AWtw7MUsX7FaIfu4ULnxXei9nwycCJ/AdY+Qd/v/rZwhwk+fABeS/i8sHhM2e6BGLx2YGq9DjVd0x+KLwXjYLk8JdCy88hUQ9xaEGfqOaDdGN7PjN83kyHgVFvRVK+Y2CspboomdOqB2BKQ+E9aQZUyiVocaG3nAbtHvab6Bkm6mGMD8vwOTMdpFaj6BS3vMfKmuQlv6STV7XaFNFVxp6fhhaoVWloAVtPPavlPr/yLAoXCZ8z0yGgywdQMuPAvkj1rWIjvpvHQMR4aXeqlAkjn+BqmT0qaqBaVU8hlkexI7wLuMmh7aDFDwd++VEre4JYfJhSUsL71Cw+AdqoebDyZxSa0JfBqv0uv3MrfkuWcPh8mTYDK0owYgN/1Wly8v6mJ2HFMeF9ygpN/M7Iiq9aQC2vePeud0SpKokCdLSSraYOgiOoKaS4cOCtpelKa/Tc42L59vB+tYIz8lXQ0b/AytX+fg/qsrnXlFpNq5w57FXhM2XaRC2DfiNbS4HSGj03QI+8KbxnrUJlV2Dk6TDiMc696wHVyzNTKA1bTe3HLRx9AbT4Nfs+tiIajIm8yFUOz72TRurXiyKyVqf8T4MSO9aLIqvJytsp4j98lkzOQEsDqzZyQOA2VKtuiKXlXcL7lwdUFwq2tAhWXuInJ/Y/FVdpy6eTKF8yfI5MTvhoZSNuZt/SLCIrhgYkVRVYPrxreB/zwi2khgiKao6nycG0vGMLqliiDAGr1rQaiMtsAxjxPp6UGhRZlDQ5WXXm1poZ5AWS6LVIyp+Alvf558PPqFjaVB+craa8gS2/Glrew8uGJkSTE0WHW3kWFh/almXddGDLb4AR34JVqzlAs0Aiq8nIddByJHxmTIvAiBPTInDsW2pK9WVdG31OIa6i3kbNOmHlOk4QLoDqO3RGXIyJ0vPC58VkBKa8N3Uf5SVCRtUtJy3PhRWvDO9vO3ALh56FWIzCqDOhRVo9kyeo7omsponyU4jFCg4fyAno6PTcwgMoQLDuB6nLO237/KXZNDldShUZwnvcLnzXGjv8Hhj1O1i5gSeoGUTjj+4LLX9pnJPoz3kHtHrLWV7B9cFzAFoe4vuqtepbogdNmddGPEUF+ikqFlreBC3v9InAdPx+X3ZM+ZzUHyilJ7zX7cQ3R0jUEmh5mX8R6XmE5zdoqo05SpqGkbc4Iy/3Hw7qvkx/NvIW8g356hmtjn8SPX/KEKhEx7LV1AK+rEksvtZSWZPa1whGXQ0dnexb3Ri5n4tHd8N7570csdwHVrwLWkw6K37pH16/LxnTJpr3wUTLOt3JlXwcsOr9SNSVPoKcWkyF59fv8h8I3/XmAWhxhm85NkP3m1q1h2Nh5Ldh5JpcOkun/sYzcfTc54S/j2kQZ0f3pRiMzOZs2vJoDaw4AXbeq8PjhyCZ/yLq3Qarbuz7Lzp9OZPyemj5FeriG96LduNz8KxcCSuvH5jldF3pkvq/MS7eEd6XreGT1q28rOWPJiV8J+ohLJ37xvB3MA0CIz6a+SuRhuPfBSPeGR53NiiEH1Zd3feTEw3yFQto8v41kvmvDe9DJ3Dx8G5Iyst9zXaynrwPaoZz7QdN1c+SP8aiw5v+GPh7ZdXZLY3L+g5dJdK8nMuAd5oacW2mtXUat7G2lbgNVOU+MPKGvl1q0ASQViS4Dlouz9LYIE/SZYv8PBJ1u/8YZf0gFVk0IVh1iVs4vFt4/Y0CI14Pq65taXJKO6p80w0NbRcen5kF7/Q2Yl2mID3yoWhxQnjMZnFGzac6R5mXkkUU3c9l88mavM0Z+c/tTFnJgqvO2wNafM6nueTl9C2C/EdAPILx0rzwmpsFWi5Eoh7PPC7Tc7nOTY61XPV04HCx/Gdvdjbrd/DN/+Sd5NwOj9ksrqKeDSPOb+nrVBTRICbfhlFrkMhPYyL/0ih54paIfenjAivvniqz0uxYKIpqGyqUu5jH8gkrjtiBlt+Z/U21SdK9r72pSn0JjPhppgkhDQk4Ma/dJv91qpbRsy9FfVdSyyeRqFMQz/u78BqLjF+6GPVxGHF/z/qgvGtBbKDKGHlMTASsmIRV2cZl3dVRUQeGx2W2gY95If9SsxMTFWKfGNkIHR0ZHjMrsGJ/aHF3zy0p6qkoVj0FIy9AEqle9ikglq/pWR8U7YT5ZVy0V3hdWYEpzfNNI7Is59KJ8jHo8qHhcZltQBUYYeSfmjZVaQBo8SjiaG54zKxQlKwPeOulF8FHEacF42DKi11lv2eE19Wr9KQPKj3Hh93CoReE15MVmNGXQ4u/ZPLB1iamvMsw9z0wIxJG/KXpQZfWOb4N48NvDo+ZFZ/zpeW5uaXEtEtkIdWXbVZeDytWuIp6cXg9/UJP+aC831P8nnaaw+vICk1y0PLBpt8REk9M2YD13WEfavqmp76UPyAu7RkeMyupA1yeX+iJqZbzBy0egFWTFO8SXke/0hM+qDQs43YclV9mvzPyha1OTM0EeDLenyDelTaybPKmp0u5tUhyXMrpBTtTuYhCTkw+54yWbOpeahTgKvP2CM9/UCi0D6q2lIOeu3N43lmhXWen5cOtTExsMTWJM3Is08RE/bSqZeqnlZvzu7ZkuL1pf1c75aN3vWN7Paz4HpdN3UQhfVDpB/NxVNRh4flmhYKHaac1m/O75otNoq5E+/csSEaHMy3lSPVwgck5Tw+PmwUYcTQmRp4qhP/CZ4fXIrapU64Vo5ToHJ4zUzAfFH0wLTWgFCfkFi6gxUlIytjidzWiNNZvlZtsva38QAEzn7ZCs62f0+CxG2nXIjxus9TakJ/RUnWDPFSveJD6Kq6BKR+NxfP+OjxfZksK44OaGKUeb1dSKEx4js1CSdcw8qbMVnw6Mf2Ya4A3Cew7Xwktbsl042nQpbsg7w+P2yzkq4KRj2Yyl/NSfetfi1uhxQfy9FMMEl33QdHHhXw7cXR8q1aTtwRbCfqdoJpMYrLV8xg4KO6GKu01HWBZV/pFuAdx+eDw2I3iW0Xp6FJ6iFscvxOiydAvS9U9MNGn6cUKz5Fpnq76oGjndKJ8J+WBhufVKK4ix5CUsxdO9GEl3vnNO3JZgBbf8jc/81fBWxlXw47sHx57NiixlUpT+K9qp83+Wulfv52bqK8ijjJPrszW6ZoPijYtEvUH6OHh8JxmA0a9G4lqPvB4unxlAXljOzo1DwTe6WwEMi+jNiVO3oFYxM7OnkntK2b63Q7x29QXkfF3Z1F9QrJyHaw83xl5OPm4wnNk8qXjPihdTxWSDzojP4mjDtl1W3mdqZ9z5HXQ8nOw8pGWl6BkhY9Hn+jl9KSu4h181EAxq8laV7qDtQEmuhSJOo4K8dM2KUVF+4qVS8p/66zYtzYRng+jnvQDtJOTUprTBhj5GypsR9Hm4f1g2stmPqhawOoWzylP0bhON2rugBGn+vFHeZl16fIBGFdLYOQ3YOS99Z/f4jjNKN08+QuHl7QAfUUQi5Nb/kKQ/DZ7vfY3ZXkLakDwc2hxIbS8wceDTIymP5PVQsui2hcaiboKWizlOszdJ/VByS/Aqvu8D6qd46E+LmdTXstMspao3veKI3YIr5tpAirL4Kx8ONfB4XdHau1yalvwuTz0RjU9p83Iu2Dlh6j+dXjtTHfxhQrJx2fEo36c+MlhhueZl+q1xzbTDD+XVX7loNZARyq8VqZJvNVkxKldjyPKS3WrTctHvc9AD78uvGamOKT+nfIBsPI0ipSe+pCFz7Xo8v5WaoAQfWtb/iymCZCoA2Hk/W1f87dTNDDScraPwIjv0mDnGJLewU9QRhwEq86ALd/v8ybztOLbLV9qWt6TZz0oxu+cyONbCijrlmo5bT5uRIvzEJcWhNfG9Baw6jAY+Z+Up9gTDVJrrgvoUm7VM5kavsSDr73d4d2yrKo7NX3lQnURTHQs77T1D25yz2f6PEUrz/LPu9O7uM2ILHUtv4MjDmCHdztI403k9ZmjwTulTTltt1CxNk4h6V98V2GtjoRRl8KqjR2PfduWyFqnXTirLsQxh70oPHcmR6CjyPubijg5+Zw2H9X7R1j1b5hY8LLw/Jn+hArAIVHJVB/CPEJcWpWflOSVMKW9w/Nl2oCfnKrlewrx8En0hUy/TNSH/quIR3Krnsn0Fojl30CXP4ZE3Vr3LW4xXjqh5dSmS1yNeN4+4TkybQRxSSChyYmcjzM8mE7Ib8H63Q7Aqu/CKI6mZTy+xbwRX4WRnV3e0e9Ju/1eDD33jeF5MR2A6hVTxHTHY0vqE1KiqE/YJYiloLrg4fkxg42rVJ4BIySMungqgjscS3kqDdjd6EMalpTYjdBN6AE4I76OpPwk7T603XqqO7a1vIraInEKCTMbvpuJlSspDaot8U804flUE3knYllFiSuaFgKKzaj1cr9oqgBY3hNU/eFbdbOPqVq+YNfwPBhmW6ASvcUH11r5VC45ePTvfdCueghanuaWyP3C38kUABxb2glJeQJW/rqe+pHGEtXyjsIHuzX5gLRaPl09hYS2/nX0MSQcOctkxxdAjOUC2PJpvnR0fYxOH6de9dy5aflz9Pf1n/XlccRDsOLkPBscMG0Ei8u7+JpKVC6CwvCNXOcfqremRjcl74aiv6tHaRu1HlqugRFnw4jFGC/tHv4ehskK1dqGLb8BVr0fWv4P1YKClU/QRspUcG5d1MhAk++I/l48ACN+4ZeGSbQX5731IP7rRJOULY9Cy89QiRNn1eXQZP2IVZtL3gKjroKRF0GLf/PF/sdLu3MHEqbd+IaqEwtehkQOw4gJXzxOi9NgxNego9NhxadgZdX/fTLyUt5o6UOcm/M0KjHimwVOF/2/yYWcMsIwDMMwDMMwDMMwDMMwDMMwDMMwDMMwDMMwDMMwDMMwDMMwDMMwDMMwDMMwDMMwDMMwDMMwDMMwDMMwDMMwDMMwDMMwDMMwDMMwDMMwDMMwDMMwDMMwDMMwDMMwDMMwDMMwDMMwDMMwDMMwDMMwDMMwDMMwDMMUkP8PFwfDpSskNVQAAAAASUVORK5CYII=;" vertex="1" parent="1">
          <mxGeometry x="329.45" y="1070" width="53.41" height="51.22" as="geometry" />
        </mxCell>
      </root>
    </mxGraphModel>
  </diagram>
</mxfile>
